<svg xmlns="http://www.w3.org/2000/svg" xmlns:xlink="http://www.w3.org/1999/xlink" width="94.915" height="102.61" viewBox="0 0 94.915 102.61">
  <defs>
    <linearGradient id="linear-gradient" y1="0.5" x2="1" y2="0.5" gradientUnits="objectBoundingBox">
      <stop offset="0"/>
      <stop offset="0.448" stop-color="#303030"/>
      <stop offset="0.633" stop-color="#222"/>
      <stop offset="0.721" stop-color="#1a1a1a"/>
      <stop offset="0.758" stop-color="#202020"/>
      <stop offset="0.811" stop-color="#333"/>
      <stop offset="0.874" stop-color="#535353"/>
      <stop offset="0.944" stop-color="#7e7e7e"/>
      <stop offset="0.982" stop-color="#999"/>
    </linearGradient>
    <linearGradient id="linear-gradient-2" x1="-0.018" y1="0.768" x2="0.326" y2="0.835" gradientUnits="objectBoundingBox">
      <stop offset="0" stop-color="#525252"/>
      <stop offset="0.021" stop-color="#565656"/>
      <stop offset="0.1" stop-color="#626262"/>
      <stop offset="0.212" stop-color="#696969"/>
      <stop offset="0.522" stop-color="#6b6b6b"/>
      <stop offset="0.569" stop-color="#5d5d5d"/>
      <stop offset="0.655" stop-color="#393939"/>
      <stop offset="0.721" stop-color="#1a1a1a"/>
      <stop offset="0.758" stop-color="#202020"/>
      <stop offset="0.811" stop-color="#333"/>
      <stop offset="0.874" stop-color="#535353"/>
      <stop offset="0.944" stop-color="#7e7e7e"/>
      <stop offset="0.982" stop-color="#999"/>
    </linearGradient>
    <linearGradient id="linear-gradient-3" x1="0.164" y1="0.746" x2="0.509" y2="0.814" xlink:href="#linear-gradient-2"/>
    <linearGradient id="linear-gradient-4" x1="0.5" y1="1" x2="0.5" gradientUnits="objectBoundingBox">
      <stop offset="0.024" stop-color="#d9d9d9"/>
      <stop offset="0.091" stop-color="#f0f0f0"/>
      <stop offset="0.32" stop-color="#fafafa"/>
      <stop offset="0.576" stop-color="#fff"/>
      <stop offset="0.924" stop-color="#fff"/>
      <stop offset="0.982" stop-color="#fff"/>
    </linearGradient>
    <linearGradient id="linear-gradient-5" x1="0.5" x2="0.5" y2="1" gradientUnits="objectBoundingBox">
      <stop offset="0" stop-color="#292929"/>
      <stop offset="0.006" stop-color="#363636"/>
      <stop offset="0.021" stop-color="#505050"/>
      <stop offset="0.039" stop-color="#666"/>
      <stop offset="0.059" stop-color="#777"/>
      <stop offset="0.084" stop-color="#838383"/>
      <stop offset="0.12" stop-color="#8a8a8a"/>
      <stop offset="0.218" stop-color="#8c8c8c"/>
      <stop offset="0.293" stop-color="#7e7e7e"/>
      <stop offset="0.434" stop-color="#5a5a5a"/>
      <stop offset="0.625" stop-color="#202020"/>
      <stop offset="0.721"/>
      <stop offset="0.754" stop-color="#060606"/>
      <stop offset="0.801" stop-color="#191919"/>
      <stop offset="0.856" stop-color="#393939"/>
      <stop offset="0.918" stop-color="#646464"/>
      <stop offset="0.982" stop-color="#999"/>
    </linearGradient>
    <linearGradient id="linear-gradient-6" x1="0.5" x2="0.5" y2="1" gradientUnits="objectBoundingBox">
      <stop offset="0"/>
      <stop offset="0.013" stop-color="#090909"/>
      <stop offset="0.086" stop-color="#3b3b3b"/>
      <stop offset="0.151" stop-color="#5f5f5f"/>
      <stop offset="0.203" stop-color="#747474"/>
      <stop offset="0.236" stop-color="#7d7d7d"/>
      <stop offset="0.283" stop-color="#6f6f6f"/>
      <stop offset="0.371" stop-color="#4b4b4b"/>
      <stop offset="0.406" stop-color="#3b3b3b"/>
      <stop offset="0.501" stop-color="#2d2d2d"/>
      <stop offset="0.68" stop-color="#090909"/>
      <stop offset="0.721"/>
      <stop offset="0.828" stop-color="#060606"/>
      <stop offset="0.981" stop-color="#191919"/>
      <stop offset="0.982" stop-color="#1a1a1a"/>
    </linearGradient>
    <linearGradient id="linear-gradient-8" x1="0.5" x2="0.5" y2="1" gradientUnits="objectBoundingBox">
      <stop offset="0" stop-color="#292929"/>
      <stop offset="0.006" stop-color="#363636"/>
      <stop offset="0.021" stop-color="#505050"/>
      <stop offset="0.039" stop-color="#666"/>
      <stop offset="0.059" stop-color="#777"/>
      <stop offset="0.084" stop-color="#838383"/>
      <stop offset="0.12" stop-color="#8a8a8a"/>
      <stop offset="0.218" stop-color="#8c8c8c"/>
      <stop offset="0.293" stop-color="#7e7e7e"/>
      <stop offset="0.434" stop-color="#5a5a5a"/>
      <stop offset="0.625" stop-color="#202020"/>
      <stop offset="0.721"/>
      <stop offset="0.784" stop-color="#060606"/>
      <stop offset="0.873" stop-color="#191919"/>
      <stop offset="0.979" stop-color="#383838"/>
      <stop offset="1" stop-color="#404040"/>
    </linearGradient>
    <linearGradient id="linear-gradient-11" x1="-0.228" y1="2.008" x2="1.162" y2="-0.932" gradientUnits="objectBoundingBox">
      <stop offset="0" stop-color="#ff5959"/>
      <stop offset="0.194" stop-color="#f84b4b"/>
      <stop offset="0.556" stop-color="#e82727"/>
      <stop offset="0.901" stop-color="#d60000"/>
    </linearGradient>
    <linearGradient id="linear-gradient-12" x1="0.416" y1="0.325" x2="1.109" y2="1.792" gradientUnits="objectBoundingBox">
      <stop offset="0" stop-color="#c90000"/>
      <stop offset="0.35" stop-color="#ab0000"/>
      <stop offset="0.683" stop-color="#960000"/>
      <stop offset="0.901" stop-color="#8f0000"/>
    </linearGradient>
    <linearGradient id="linear-gradient-13" x1="0.465" y1="0.413" x2="0.569" y2="0.911" gradientUnits="objectBoundingBox">
      <stop offset="0" stop-color="#ff5757"/>
      <stop offset="0.276" stop-color="#fc5454"/>
      <stop offset="0.476" stop-color="#f54a4a"/>
      <stop offset="0.651" stop-color="#e93a3a"/>
      <stop offset="0.813" stop-color="#d82424"/>
      <stop offset="0.963" stop-color="#c30808"/>
      <stop offset="1" stop-color="#bd0000"/>
    </linearGradient>
    <linearGradient id="linear-gradient-14" x1="0.495" y1="2.387" x2="0.505" y2="-1.621" gradientUnits="objectBoundingBox">
      <stop offset="0" stop-color="#ff7d7d"/>
      <stop offset="0.15" stop-color="#f96f6f"/>
      <stop offset="0.43" stop-color="#ea4b4b"/>
      <stop offset="0.81" stop-color="#d31111"/>
      <stop offset="0.918" stop-color="#c00"/>
    </linearGradient>
    <linearGradient id="linear-gradient-15" x1="0.496" y1="2.431" x2="0.505" y2="-1.669" gradientUnits="objectBoundingBox">
      <stop offset="0" stop-color="#ff7d7d"/>
      <stop offset="0.163" stop-color="#f86f6f"/>
      <stop offset="0.469" stop-color="#e54b4b"/>
      <stop offset="0.882" stop-color="#c81111"/>
      <stop offset="1" stop-color="#bf0000"/>
    </linearGradient>
    <radialGradient id="radial-gradient" cx="0.439" cy="0.229" r="9.098" gradientTransform="translate(0.461) scale(0.078 1)" gradientUnits="objectBoundingBox">
      <stop offset="0" stop-color="#fff"/>
      <stop offset="0.061" stop-color="#f6f6f6"/>
      <stop offset="0.159" stop-color="#dfdfdf"/>
      <stop offset="0.282" stop-color="#b8b8b8"/>
      <stop offset="0.424" stop-color="#838383"/>
      <stop offset="0.581" stop-color="#404040"/>
      <stop offset="0.72"/>
    </radialGradient>
    <radialGradient id="radial-gradient-2" cx="0.412" cy="-0.366" r="1.438" gradientTransform="translate(0.24) scale(0.519 1)" gradientUnits="objectBoundingBox">
      <stop offset="0.198" stop-color="red"/>
      <stop offset="0.407" stop-color="#fc0000"/>
      <stop offset="0.559" stop-color="#f20000"/>
      <stop offset="0.692" stop-color="#e20000"/>
      <stop offset="0.814" stop-color="#c00"/>
      <stop offset="0.929" stop-color="#b00000"/>
      <stop offset="0.94" stop-color="#ad0000"/>
    </radialGradient>
    <radialGradient id="radial-gradient-3" cx="0.554" cy="0.313" r="0.9" gradientTransform="translate(0.227 -0.013) scale(0.567 1.041)" gradientUnits="objectBoundingBox">
      <stop offset="0.2" stop-color="#d1db61"/>
      <stop offset="0.357" stop-color="#c9d653"/>
      <stop offset="0.649" stop-color="#b4c931"/>
      <stop offset="1" stop-color="#96b800"/>
    </radialGradient>
    <radialGradient id="radial-gradient-4" cx="0.651" cy="-0.266" r="1.164" gradientTransform="translate(0.215) scale(0.57 1)" gradientUnits="objectBoundingBox">
      <stop offset="0" stop-color="#adc200"/>
      <stop offset="0.28" stop-color="#aabf00"/>
      <stop offset="0.482" stop-color="#a0b900"/>
      <stop offset="0.66" stop-color="#90ae00"/>
      <stop offset="0.824" stop-color="#7a9e00"/>
      <stop offset="0.976" stop-color="#5e8a00"/>
      <stop offset="1" stop-color="#598700"/>
    </radialGradient>
  </defs>
  <g id="Group_5546" data-name="Group 5546" transform="translate(-268.988 -394.704)">
    <g id="Group_5545" data-name="Group 5545" transform="translate(268.988 394.704)">
      <g id="Group_5526" data-name="Group 5526" transform="translate(24.598 16.069)">
        <path id="Path_4945" data-name="Path 4945" d="M408.068,520.418a.915.915,0,0,1-.942.843h0a.883.883,0,0,1-.937-.843l-.7-77.989c0-.467.731-.845,1.634-.845h0c.9,0,1.639.378,1.639.845Z" transform="translate(-383.301 -441.584)" fill="url(#linear-gradient)"/>
        <path id="Path_4946" data-name="Path 4946" d="M342.322,568.883c-.152.369-.68.5-1.176.409h0a.83.83,0,0,1-.312-1.1l23.99-62.253c.148-.372,1.048-.357,2,.03h0c.959.387,1.612,1,1.455,1.371Z" transform="translate(-340.752 -483.706)" fill="url(#linear-gradient-2)"/>
        <path id="Path_4947" data-name="Path 4947" d="M429.116,571.593c.15.371.678.5,1.176.409h0a.83.83,0,0,0,.31-1.094l-23.988-62.253c-.15-.372-1.05-.357-2,.03h0c-.961.389-1.615,1-1.455,1.372Z" transform="translate(-381.751 -485.488)" fill="url(#linear-gradient-3)"/>
      </g>
      <rect id="Rectangle_3542" data-name="Rectangle 3542" width="90.846" height="63.905" transform="translate(1.895 2.828)" fill="url(#linear-gradient-4)"/>
      <g id="Group_5527" data-name="Group 5527" transform="translate(0 0)">
        <rect id="Rectangle_3543" data-name="Rectangle 3543" width="92.436" height="4.557" transform="translate(1.109 0.541)" fill="url(#linear-gradient-5)"/>
        <path id="Path_4948" data-name="Path 4948" d="M541.216,399.294c0,.483-.547.872-1.22.872h0c-.673,0-1.22-.39-1.22-.872v-3.718c0-.481.547-.872,1.22-.872h0c.673,0,1.22.391,1.22.872Z" transform="translate(-446.301 -394.704)" fill="url(#linear-gradient-6)"/>
        <path id="Path_4949" data-name="Path 4949" d="M271.43,399.294c0,.483-.547.872-1.222.872h0c-.673,0-1.22-.39-1.22-.872v-3.718c0-.481.547-.872,1.22-.872h0c.676,0,1.222.391,1.222.872Z" transform="translate(-268.988 -394.704)" fill="url(#linear-gradient-6)"/>
      </g>
      <g id="Group_5528" data-name="Group 5528" transform="translate(0 65.381)">
        <rect id="Rectangle_3544" data-name="Rectangle 3544" width="92.436" height="4.557" transform="translate(1.109 0.541)" fill="url(#linear-gradient-8)"/>
        <path id="Path_4950" data-name="Path 4950" d="M541.216,590.036c0,.482-.547.871-1.22.871h0c-.673,0-1.22-.39-1.22-.871v-3.718c0-.482.547-.871,1.22-.871h0c.673,0,1.22.39,1.22.871Z" transform="translate(-446.301 -585.447)" fill="url(#linear-gradient-6)"/>
        <path id="Path_4951" data-name="Path 4951" d="M271.43,590.036c0,.482-.547.871-1.222.871h0c-.673,0-1.22-.39-1.22-.871v-3.718c0-.482.547-.871,1.22-.871h0c.676,0,1.222.39,1.222.871Z" transform="translate(-268.988 -585.447)" fill="url(#linear-gradient-6)"/>
      </g>
      <g id="Group_5544" data-name="Group 5544" transform="translate(11.216 11.821)">
        <g id="Group_5529" data-name="Group 5529" transform="translate(2.877)" style="mix-blend-mode: multiply;isolation: isolate">
          <path id="Path_4952" data-name="Path 4952" d="M310.1,477.988v-2.073h.169v2.073Zm0-2.7v-2.071h.169v2.071Zm0-2.694v-2.072h.169V472.6Zm0-2.693v-2.073h.169v2.073Zm0-2.7v-2.073h.169v2.073Zm0-2.7v-2.072h.169v2.072Zm0-2.692v-2.075h.169v2.075Zm0-2.7v-2.072h.169v2.072Zm0-2.695v-2.073h.169v2.073Zm0-2.7v-2.072h.169v2.072Zm0-2.694v-2.072h.169v2.072Zm0-2.694v-2.072h.169v2.072Zm0-2.7v-2.072h.169v2.072Zm0-2.7v-2.072h.169v2.072Zm0-2.694v-2.074h.169v2.074Zm0-2.694v-2.073h.169v2.073Zm0-2.7V432.8h.169v2.073Zm0-2.7V430.1h.169v2.071Z" transform="translate(-310.102 -429.792)" fill="#7d7d7d"/>
          <path id="Path_4953" data-name="Path 4953" d="M338.066,477.988v-2.073h.17v2.073Zm0-2.7v-2.071h.17v2.071Zm0-2.694v-2.072h.17V472.6Zm0-2.693v-2.073h.17v2.073Zm0-2.7v-2.073h.17v2.073Zm0-2.7v-2.072h.17v2.072Zm0-2.692v-2.075h.17v2.075Zm0-2.7v-2.072h.17v2.072Zm0-2.695v-2.073h.17v2.073Zm0-2.7v-2.072h.17v2.072Zm0-2.694v-2.072h.17v2.072Zm0-2.694v-2.072h.17v2.072Zm0-2.7v-2.072h.17v2.072Zm0-2.7v-2.072h.17v2.072Zm0-2.694v-2.074h.17v2.074Zm0-2.694v-2.073h.17v2.073Zm0-2.7V432.8h.17v2.073Zm0-2.7V430.1h.17v2.071Z" transform="translate(-328.481 -429.792)" fill="#7d7d7d"/>
          <path id="Path_4954" data-name="Path 4954" d="M366.045,477.988v-2.073h.169v2.073Zm0-2.7v-2.071h.169v2.071Zm0-2.694v-2.072h.169V472.6Zm0-2.693v-2.073h.169v2.073Zm0-2.7v-2.073h.169v2.073Zm0-2.7v-2.072h.169v2.072Zm0-2.692v-2.075h.169v2.075Zm0-2.7v-2.072h.169v2.072Zm0-2.695v-2.073h.169v2.073Zm0-2.7v-2.072h.169v2.072Zm0-2.694v-2.072h.169v2.072Zm0-2.694v-2.072h.169v2.072Zm0-2.7v-2.072h.169v2.072Zm0-2.7v-2.072h.169v2.072Zm0-2.694v-2.074h.169v2.074Zm0-2.694v-2.073h.169v2.073Zm0-2.7V432.8h.169v2.073Zm0-2.7V430.1h.169v2.071Z" transform="translate(-346.87 -429.792)" fill="#7d7d7d"/>
          <path id="Path_4955" data-name="Path 4955" d="M394.024,477.988v-2.073h.169v2.073Zm0-2.7v-2.071h.169v2.071Zm0-2.694v-2.072h.169V472.6Zm0-2.693v-2.073h.169v2.073Zm0-2.7v-2.073h.169v2.073Zm0-2.7v-2.072h.169v2.072Zm0-2.692v-2.075h.169v2.075Zm0-2.7v-2.072h.169v2.072Zm0-2.695v-2.073h.169v2.073Zm0-2.7v-2.072h.169v2.072Zm0-2.694v-2.072h.169v2.072Zm0-2.694v-2.072h.169v2.072Zm0-2.7v-2.072h.169v2.072Zm0-2.7v-2.072h.169v2.072Zm0-2.694v-2.074h.169v2.074Zm0-2.694v-2.073h.169v2.073Zm0-2.7V432.8h.169v2.073Zm0-2.7V430.1h.169v2.071Z" transform="translate(-365.258 -429.792)" fill="#7d7d7d"/>
          <path id="Path_4956" data-name="Path 4956" d="M421.988,477.988v-2.073h.172v2.073Zm0-2.7v-2.071h.172v2.071Zm0-2.694v-2.072h.172V472.6Zm0-2.693v-2.073h.172v2.073Zm0-2.7v-2.073h.172v2.073Zm0-2.7v-2.072h.172v2.072Zm0-2.692v-2.075h.172v2.075Zm0-2.7v-2.072h.172v2.072Zm0-2.695v-2.073h.172v2.073Zm0-2.7v-2.072h.172v2.072Zm0-2.694v-2.072h.172v2.072Zm0-2.694v-2.072h.172v2.072Zm0-2.7v-2.072h.172v2.072Zm0-2.7v-2.072h.172v2.072Zm0-2.694v-2.074h.172v2.074Zm0-2.694v-2.073h.172v2.073Zm0-2.7V432.8h.172v2.073Zm0-2.7V430.1h.172v2.071Z" transform="translate(-383.637 -429.792)" fill="#7d7d7d"/>
          <path id="Path_4957" data-name="Path 4957" d="M449.953,477.988v-2.073h.174v2.073Zm0-2.7v-2.071h.174v2.071Zm0-2.694v-2.072h.174V472.6Zm0-2.693v-2.073h.174v2.073Zm0-2.7v-2.073h.174v2.073Zm0-2.7v-2.072h.174v2.072Zm0-2.692v-2.075h.174v2.075Zm0-2.7v-2.072h.174v2.072Zm0-2.695v-2.073h.174v2.073Zm0-2.7v-2.072h.174v2.072Zm0-2.694v-2.072h.174v2.072Zm0-2.694v-2.072h.174v2.072Zm0-2.7v-2.072h.174v2.072Zm0-2.7v-2.072h.174v2.072Zm0-2.694v-2.074h.174v2.074Zm0-2.694v-2.073h.174v2.073Zm0-2.7V432.8h.174v2.073Zm0-2.7V430.1h.174v2.071Z" transform="translate(-402.017 -429.792)" fill="#7d7d7d"/>
          <path id="Path_4958" data-name="Path 4958" d="M477.932,477.988v-2.073h.169v2.073Zm0-2.7v-2.071h.169v2.071Zm0-2.694v-2.072h.169V472.6Zm0-2.693v-2.073h.169v2.073Zm0-2.7v-2.073h.169v2.073Zm0-2.7v-2.072h.169v2.072Zm0-2.692v-2.075h.169v2.075Zm0-2.7v-2.072h.169v2.072Zm0-2.695v-2.073h.169v2.073Zm0-2.7v-2.072h.169v2.072Zm0-2.694v-2.072h.169v2.072Zm0-2.694v-2.072h.169v2.072Zm0-2.7v-2.072h.169v2.072Zm0-2.7v-2.072h.169v2.072Zm0-2.694v-2.074h.169v2.074Zm0-2.694v-2.073h.169v2.073Zm0-2.7V432.8h.169v2.073Zm0-2.7V430.1h.169v2.071Z" transform="translate(-420.405 -429.792)" fill="#7d7d7d"/>
          <path id="Path_4959" data-name="Path 4959" d="M505.911,477.988v-2.073h.169v2.073Zm0-2.7v-2.071h.169v2.071Zm0-2.694v-2.072h.169V472.6Zm0-2.693v-2.073h.169v2.073Zm0-2.7v-2.073h.169v2.073Zm0-2.7v-2.072h.169v2.072Zm0-2.692v-2.075h.169v2.075Zm0-2.7v-2.072h.169v2.072Zm0-2.695v-2.073h.169v2.073Zm0-2.7v-2.072h.169v2.072Zm0-2.694v-2.072h.169v2.072Zm0-2.694v-2.072h.169v2.072Zm0-2.7v-2.072h.169v2.072Zm0-2.7v-2.072h.169v2.072Zm0-2.694v-2.074h.169v2.074Zm0-2.694v-2.073h.169v2.073Zm0-2.7V432.8h.169v2.073Zm0-2.7V430.1h.169v2.071Z" transform="translate(-438.794 -429.792)" fill="#7d7d7d"/>
          <path id="Path_4960" data-name="Path 4960" d="M376.207,569.257v-.2h2.469v.2Zm-3.21,0v-.2h2.469v.2Zm-3.212,0v-.2h2.469v.2Zm-3.212,0v-.2h2.469v.2Zm-3.212,0v-.2h2.471v.2Zm-3.212,0v-.2h2.469v.2Zm-3.214,0v-.2h2.471v.2Zm-3.21,0v-.2h2.469v.2Zm-3.212,0v-.2h2.471v.2Zm-3.212,0v-.2h2.471v.2Zm-3.21,0v-.2h2.469v.2Zm-3.21,0v-.2h2.469v.2Zm-3.214,0v-.2h2.469v.2Zm-3.212,0v-.2h2.471v.2Zm-3.212,0v-.2h2.471v.2Zm-3.212,0v-.2H330.5v.2Zm-3.21,0v-.2h2.469v.2Zm-3.212,0v-.2h2.469v.2Zm-3.21,0v-.2h2.469v.2Zm-3.214,0v-.2h2.469v.2Zm-3.212,0v-.2h2.471v.2Z" transform="translate(-311.332 -521.115)" fill="#7d7d7d"/>
          <path id="Path_4961" data-name="Path 4961" d="M376.207,541.286v-.2h2.469v.2Zm-3.21,0v-.2h2.469v.2Zm-3.212,0v-.2h2.469v.2Zm-3.212,0v-.2h2.469v.2Zm-3.212,0v-.2h2.471v.2Zm-3.212,0v-.2h2.469v.2Zm-3.214,0v-.2h2.471v.2Zm-3.21,0v-.2h2.469v.2Zm-3.212,0v-.2h2.471v.2Zm-3.212,0v-.2h2.471v.2Zm-3.21,0v-.2h2.469v.2Zm-3.21,0v-.2h2.469v.2Zm-3.214,0v-.2h2.469v.2Zm-3.212,0v-.2h2.471v.2Zm-3.212,0v-.2h2.471v.2Zm-3.212,0v-.2H330.5v.2Zm-3.21,0v-.2h2.469v.2Zm-3.212,0v-.2h2.469v.2Zm-3.21,0v-.2h2.469v.2Zm-3.214,0v-.2h2.469v.2Zm-3.212,0v-.2h2.471v.2Z" transform="translate(-311.332 -502.733)" fill="#7d7d7d"/>
          <path id="Path_4962" data-name="Path 4962" d="M376.207,513.313v-.2h2.469v.2Zm-3.21,0v-.2h2.469v.2Zm-3.212,0v-.2h2.469v.2Zm-3.212,0v-.2h2.469v.2Zm-3.212,0v-.2h2.471v.2Zm-3.212,0v-.2h2.469v.2Zm-3.214,0v-.2h2.471v.2Zm-3.21,0v-.2h2.469v.2Zm-3.212,0v-.2h2.471v.2Zm-3.212,0v-.2h2.471v.2Zm-3.21,0v-.2h2.469v.2Zm-3.21,0v-.2h2.469v.2Zm-3.214,0v-.2h2.469v.2Zm-3.212,0v-.2h2.471v.2Zm-3.212,0v-.2h2.471v.2Zm-3.212,0v-.2H330.5v.2Zm-3.21,0v-.2h2.469v.2Zm-3.212,0v-.2h2.469v.2Zm-3.21,0v-.2h2.469v.2Zm-3.214,0v-.2h2.469v.2Zm-3.212,0v-.2h2.471v.2Z" transform="translate(-311.332 -484.347)" fill="#7d7d7d"/>
          <path id="Path_4963" data-name="Path 4963" d="M376.207,485.335v-.2h2.469v.2Zm-3.21,0v-.2h2.469v.2Zm-3.212,0v-.2h2.469v.2Zm-3.212,0v-.2h2.469v.2Zm-3.212,0v-.2h2.471v.2Zm-3.212,0v-.2h2.469v.2Zm-3.214,0v-.2h2.471v.2Zm-3.21,0v-.2h2.469v.2Zm-3.212,0v-.2h2.471v.2Zm-3.212,0v-.2h2.471v.2Zm-3.21,0v-.2h2.469v.2Zm-3.21,0v-.2h2.469v.2Zm-3.214,0v-.2h2.469v.2Zm-3.212,0v-.2h2.471v.2Zm-3.212,0v-.2h2.471v.2Zm-3.212,0v-.2H330.5v.2Zm-3.21,0v-.2h2.469v.2Zm-3.212,0v-.2h2.469v.2Zm-3.21,0v-.2h2.469v.2Zm-3.214,0v-.2h2.469v.2Zm-3.212,0v-.2h2.471v.2Z" transform="translate(-311.332 -465.959)" fill="#7d7d7d"/>
          <path id="Path_4964" data-name="Path 4964" d="M376.207,457.366v-.2h2.469v.2Zm-3.21,0v-.2h2.469v.2Zm-3.212,0v-.2h2.469v.2Zm-3.212,0v-.2h2.469v.2Zm-3.212,0v-.2h2.471v.2Zm-3.212,0v-.2h2.469v.2Zm-3.214,0v-.2h2.471v.2Zm-3.21,0v-.2h2.469v.2Zm-3.212,0v-.2h2.471v.2Zm-3.212,0v-.2h2.471v.2Zm-3.21,0v-.2h2.469v.2Zm-3.21,0v-.2h2.469v.2Zm-3.214,0v-.2h2.469v.2Zm-3.212,0v-.2h2.471v.2Zm-3.212,0v-.2h2.471v.2Zm-3.212,0v-.2H330.5v.2Zm-3.21,0v-.2h2.469v.2Zm-3.212,0v-.2h2.469v.2Zm-3.21,0v-.2h2.469v.2Zm-3.214,0v-.2h2.469v.2Zm-3.212,0v-.2h2.471v.2Z" transform="translate(-311.332 -447.577)" fill="#7d7d7d"/>
          <path id="Path_4965" data-name="Path 4965" d="M376.207,429.391v-.2h2.469v.2Zm-3.21,0v-.2h2.469v.2Zm-3.212,0v-.2h2.469v.2Zm-3.212,0v-.2h2.469v.2Zm-3.212,0v-.2h2.471v.2Zm-3.212,0v-.2h2.469v.2Zm-3.214,0v-.2h2.471v.2Zm-3.21,0v-.2h2.469v.2Zm-3.212,0v-.2h2.471v.2Zm-3.212,0v-.2h2.471v.2Zm-3.21,0v-.2h2.469v.2Zm-3.21,0v-.2h2.469v.2Zm-3.214,0v-.2h2.469v.2Zm-3.212,0v-.2h2.471v.2Zm-3.212,0v-.2h2.471v.2Zm-3.212,0v-.2H330.5v.2Zm-3.21,0v-.2h2.469v.2Zm-3.212,0v-.2h2.469v.2Zm-3.21,0v-.2h2.469v.2Zm-3.214,0v-.2h2.469v.2Zm-3.212,0v-.2h2.471v.2Z" transform="translate(-311.332 -429.191)" fill="#7d7d7d"/>
        </g>
        <g id="Group_5542" data-name="Group 5542" transform="translate(6.255 9.455)">
          <path id="Path_4966" data-name="Path 4966" d="M483.2,479.017a.359.359,0,0,0,.058.312L484.9,481.2a.79.79,0,0,0,.293.2l.908.337c.092.035-.048-.087-.1-.176l-2.171-3.955c-.046-.087-.114-.081-.148.014Z" transform="translate(-427.238 -470.427)" fill="#91010a"/>
          <g id="Group_5532" data-name="Group 5532">
            <path id="Path_4967" data-name="Path 4967" d="M474.028,456.775a.715.715,0,0,1,.344.08l1.05.59c.087.05-.082.029-.181.034l-10.539.777a.646.646,0,0,1-.337-.086l-.949-.615c-.087-.053-.073-.1.029-.11Z" transform="translate(-414.206 -456.774)" fill="url(#linear-gradient-11)"/>
            <g id="Group_5531" data-name="Group 5531" transform="translate(0 0.694)">
              <g id="Group_5530" data-name="Group 5530">
                <path id="Path_4968" data-name="Path 4968" d="M470.338,467.043c.058.082.053.086-.014.011l-3.65-4.225c-.068-.076-.174-.2-.242-.278l-.755-.888c-.063-.077-.169-.2-.234-.278l-2.089-2.457c-.068-.079-.044-.163.046-.115l1.748,1.115c.087.049.08.013.138.1Z" transform="translate(-414.176 -458.798)" fill="url(#linear-gradient-12)"/>
                <path id="Path_4969" data-name="Path 4969" d="M372.8,466.553a.43.43,0,0,1,.107.314l-.078.584a.4.4,0,0,0,.116.3l2.8,2.445a.134.134,0,0,1-.01.224l-16.157,11.363c-.08.057-.23.105.69.456h-8.312c-1.123-.351-1.254-.281-1.307-.2l-6.487,9.642a.392.392,0,0,1-.286.151h-11.57a.859.859,0,0,0-.344.085l-11.829,2.347c-.089.047-.14.08-.133-.022l-.039-.381a.237.237,0,0,1,.107-.246L330,488.7a.558.558,0,0,1,.319-.119h10.3a.28.28,0,0,0,.286-.151l8.922-11.267a.379.379,0,0,1,.281-.153l7.518.006a.365.365,0,0,0,.252-.1l13.671-11.38a.2.2,0,0,1,.271.013Z" transform="translate(-319.959 -463.196)" fill="url(#linear-gradient-13)"/>
              </g>
              <path id="Path_4970" data-name="Path 4970" d="M409.07,500.465l-1.176-1.37,7.668,0,1.3,1.215Z" transform="translate(-377.752 -485.28)" opacity="0.67" fill="url(#linear-gradient-14)" style="mix-blend-mode: multiply;isolation: isolate"/>
              <path id="Path_4971" data-name="Path 4971" d="M350.912,534.461l-.953-1.548,10.583-.01,1.273,1.419Z" transform="translate(-339.676 -507.503)" opacity="0.67" fill="url(#linear-gradient-15)" style="mix-blend-mode: multiply;isolation: isolate"/>
            </g>
          </g>
          <g id="Group_5533" data-name="Group 5533" transform="translate(50.038 2.442)">
            <path id="Path_4972" data-name="Path 4972" d="M468.151,463.9l-2.21,1.889,1.138,1.318,2.435-2.032Z" transform="translate(-465.941 -463.899)" fill="#fff" opacity="0" style="mix-blend-mode: multiply;isolation: isolate"/>
            <path id="Path_4973" data-name="Path 4973" d="M468.232,463.946l-2.14,1.832,1.127,1.308,2.389-1.98Z" transform="translate(-466.04 -463.93)" fill="#faf5f5" opacity="0.048" style="mix-blend-mode: multiply;isolation: isolate"/>
            <path id="Path_4974" data-name="Path 4974" d="M468.313,463.993l-2.071,1.774,1.116,1.3,2.343-1.927Z" transform="translate(-466.139 -463.961)" fill="#f6ecec" opacity="0.095" style="mix-blend-mode: multiply;isolation: isolate"/>
            <path id="Path_4975" data-name="Path 4975" d="M468.394,464.039l-2,1.716,1.105,1.287,2.3-1.875Z" transform="translate(-466.238 -463.991)" fill="#f1e2e2" opacity="0.143" style="mix-blend-mode: multiply;isolation: isolate"/>
            <path id="Path_4976" data-name="Path 4976" d="M468.475,464.086l-1.932,1.659,1.094,1.277,2.251-1.823Z" transform="translate(-466.337 -464.022)" fill="#edd9d9" opacity="0.19" style="mix-blend-mode: multiply;isolation: isolate"/>
            <path id="Path_4977" data-name="Path 4977" d="M468.556,464.132l-1.862,1.6L467.777,467l2.2-1.771Z" transform="translate(-466.436 -464.052)" fill="#e8cfcf" opacity="0.238" style="mix-blend-mode: multiply;isolation: isolate"/>
            <path id="Path_4978" data-name="Path 4978" d="M468.638,464.179l-1.793,1.543,1.073,1.257,2.158-1.718Z" transform="translate(-466.535 -464.083)" fill="#e4c6c6" opacity="0.286" style="mix-blend-mode: multiply;isolation: isolate"/>
            <path id="Path_4979" data-name="Path 4979" d="M468.719,464.225,467,465.711l1.062,1.246,2.112-1.666Z" transform="translate(-466.634 -464.114)" fill="#dfbcbc" opacity="0.333" style="mix-blend-mode: multiply;isolation: isolate"/>
            <path id="Path_4980" data-name="Path 4980" d="M468.8,464.272l-1.654,1.428,1.051,1.236,2.066-1.614Z" transform="translate(-466.733 -464.144)" fill="#dbb3b3" opacity="0.381" style="mix-blend-mode: multiply;isolation: isolate"/>
            <path id="Path_4981" data-name="Path 4981" d="M468.881,464.318l-1.584,1.37,1.04,1.226,2.02-1.562Z" transform="translate(-466.832 -464.175)" fill="#d6a9a9" opacity="0.429" style="mix-blend-mode: multiply;isolation: isolate"/>
            <path id="Path_4982" data-name="Path 4982" d="M468.962,464.365l-1.515,1.312,1.029,1.216,1.974-1.509Z" transform="translate(-466.931 -464.205)" fill="#d2a0a0" opacity="0.476" style="mix-blend-mode: multiply;isolation: isolate"/>
            <path id="Path_4983" data-name="Path 4983" d="M469.043,464.412l-1.446,1.255,1.019,1.206,1.928-1.457Z" transform="translate(-467.03 -464.236)" fill="#cd9696" opacity="0.524" style="mix-blend-mode: multiply;isolation: isolate"/>
            <path id="Path_4984" data-name="Path 4984" d="M469.125,464.458l-1.376,1.2,1.008,1.2,1.882-1.4Z" transform="translate(-467.129 -464.267)" fill="#c98d8d" opacity="0.571" style="mix-blend-mode: multiply;isolation: isolate"/>
            <path id="Path_4985" data-name="Path 4985" d="M469.206,464.5l-1.307,1.139,1,1.185,1.836-1.353Z" transform="translate(-467.228 -464.297)" fill="#c48383" opacity="0.619" style="mix-blend-mode: multiply;isolation: isolate"/>
            <path id="Path_4986" data-name="Path 4986" d="M469.287,464.551l-1.237,1.082.986,1.175,1.79-1.3Z" transform="translate(-467.327 -464.328)" fill="#c07a7a" opacity="0.667" style="mix-blend-mode: multiply;isolation: isolate"/>
            <path id="Path_4987" data-name="Path 4987" d="M469.368,464.6l-1.168,1.024.975,1.165,1.743-1.248Z" transform="translate(-467.426 -464.358)" fill="#bb7070" opacity="0.714" style="mix-blend-mode: multiply;isolation: isolate"/>
            <path id="Path_4988" data-name="Path 4988" d="M469.449,464.644l-1.1.966.964,1.155,1.7-1.2Z" transform="translate(-467.525 -464.389)" fill="#b76767" opacity="0.762" style="mix-blend-mode: multiply;isolation: isolate"/>
            <path id="Path_4989" data-name="Path 4989" d="M469.53,464.691l-1.029.909.953,1.144,1.651-1.144Z" transform="translate(-467.624 -464.42)" fill="#b25d5d" opacity="0.81" style="mix-blend-mode: multiply;isolation: isolate"/>
            <path id="Path_4990" data-name="Path 4990" d="M469.611,464.737l-.959.851.943,1.134,1.605-1.091Z" transform="translate(-467.723 -464.45)" fill="#ae5454" opacity="0.857" style="mix-blend-mode: multiply;isolation: isolate"/>
            <path id="Path_4991" data-name="Path 4991" d="M469.693,464.784l-.89.793.932,1.124,1.559-1.039Z" transform="translate(-467.822 -464.481)" fill="#a94a4a" opacity="0.905" style="mix-blend-mode: multiply;isolation: isolate"/>
            <path id="Path_4992" data-name="Path 4992" d="M469.774,464.831l-.82.736.921,1.114,1.513-.987Z" transform="translate(-467.921 -464.511)" fill="#a54141" opacity="0.952" style="mix-blend-mode: multiply;isolation: isolate"/>
            <path id="Path_4993" data-name="Path 4993" d="M469.855,464.877l-.751.678.91,1.1,1.467-.934Z" transform="translate(-468.02 -464.542)" fill="#a03737" style="mix-blend-mode: multiply;isolation: isolate"/>
          </g>
          <g id="Group_5534" data-name="Group 5534" transform="translate(20.497 25.521)" style="mix-blend-mode: multiply;isolation: isolate">
            <path id="Path_4994" data-name="Path 4994" d="M379.757,531.819c-.019-.021.317,0,.349-.034l.034-.027a6.212,6.212,0,0,1,.358-.526l1.152.888c-.034.07-.414.679-.45.709l-.111.161a1.47,1.47,0,0,1-.513,0Z" transform="translate(-379.757 -531.231)" fill="#fff" opacity="0"/>
            <path id="Path_4995" data-name="Path 4995" d="M379.809,531.876c-.019-.021.3-.007.331-.035l.033-.025a5.458,5.458,0,0,1,.344-.5l1.142.895c-.031.068-.394.648-.429.677l-.106.154a1.387,1.387,0,0,1-.492,0Z" transform="translate(-379.791 -531.285)" fill="#fcf3f3" opacity="0.048"/>
            <path id="Path_4996" data-name="Path 4996" d="M379.861,531.933c-.02-.021.286-.009.315-.036l.03-.024a4.916,4.916,0,0,1,.33-.475l1.133.9c-.028.066-.374.618-.407.646l-.1.146a1.291,1.291,0,0,1-.471,0Z" transform="translate(-379.825 -531.34)" fill="#fae7e7" opacity="0.095"/>
            <path id="Path_4997" data-name="Path 4997" d="M379.913,531.99c-.02-.021.269-.011.3-.037l.029-.023a4.292,4.292,0,0,1,.315-.449l1.123.906a7.214,7.214,0,0,1-.386.614l-.1.138a1.2,1.2,0,0,1-.449,0Z" transform="translate(-379.859 -531.395)" fill="#f7dbdb" opacity="0.143"/>
            <path id="Path_4998" data-name="Path 4998" d="M379.964,532.047c-.019-.021.254-.013.281-.038l.027-.022a3.871,3.871,0,0,1,.3-.423l1.113.912a6.38,6.38,0,0,1-.364.582l-.091.13a1.119,1.119,0,0,1-.428,0Z" transform="translate(-379.892 -531.449)" fill="#f4cece" opacity="0.19"/>
            <path id="Path_4999" data-name="Path 4999" d="M380.016,532.1c-.019-.021.238-.015.264-.039l.026-.02a3.381,3.381,0,0,1,.287-.4l1.1.918a5.566,5.566,0,0,1-.343.551l-.085.123a1.034,1.034,0,0,1-.406,0Z" transform="translate(-379.926 -531.504)" fill="#f1c2c2" opacity="0.238"/>
            <path id="Path_5000" data-name="Path 5000" d="M380.068,532.161c-.02-.021.222-.017.247-.04l.024-.019c.023-.023.254-.394.272-.372l1.094.924a4.756,4.756,0,0,1-.322.519l-.08.115a.948.948,0,0,1-.385,0Z" transform="translate(-379.96 -531.558)" fill="#efb6b6" opacity="0.286"/>
            <path id="Path_5001" data-name="Path 5001" d="M380.12,532.218c-.02-.021.206-.019.23-.041l.023-.017c.022-.022.24-.369.258-.346l1.084.93a4.129,4.129,0,0,1-.3.487l-.075.108a.864.864,0,0,1-.363,0Z" transform="translate(-379.994 -531.613)" fill="#ecaaaa" opacity="0.333"/>
            <path id="Path_5002" data-name="Path 5002" d="M380.172,532.275c-.02-.021.191-.021.213-.043l.021-.016c.021-.021.225-.342.244-.32l1.075.936a3.59,3.59,0,0,1-.279.455l-.07.1a.786.786,0,0,1-.342,0Z" transform="translate(-380.028 -531.667)" fill="#e99e9e" opacity="0.381"/>
            <path id="Path_5003" data-name="Path 5003" d="M380.222,532.332c-.019-.021.175-.023.2-.044l.02-.015c.02-.02.211-.317.23-.294l1.065.942a3.057,3.057,0,0,1-.258.423l-.065.092a.71.71,0,0,1-.32,0Z" transform="translate(-380.062 -531.721)" fill="#e79292" opacity="0.429"/>
            <path id="Path_5004" data-name="Path 5004" d="M380.274,532.388c-.02-.021.159-.025.179-.045l.018-.014c.019-.019.2-.291.215-.268l1.055.948a2.536,2.536,0,0,1-.236.391l-.059.084a.634.634,0,0,1-.3,0Z" transform="translate(-380.096 -531.776)" fill="#e48686" opacity="0.476"/>
            <path id="Path_5005" data-name="Path 5005" d="M380.326,532.445c-.02-.021.143-.027.162-.046l.016-.012c.018-.018.183-.265.2-.243l1.046.954a2.131,2.131,0,0,1-.214.36l-.054.077a.565.565,0,0,1-.277,0Z" transform="translate(-380.13 -531.83)" fill="#e17979" opacity="0.524"/>
            <path id="Path_5006" data-name="Path 5006" d="M380.378,532.5c-.02-.022.127-.029.145-.047l.014-.011c.017-.016.169-.239.187-.217l1.036.96a1.737,1.737,0,0,1-.193.328l-.049.069a.5.5,0,0,1-.256,0Z" transform="translate(-380.164 -531.884)" fill="#de6d6d" opacity="0.571"/>
            <path id="Path_5007" data-name="Path 5007" d="M380.428,532.559c-.019-.021.112-.031.128-.048l.013-.01c.016-.015.155-.213.172-.191l1.026.966a1.373,1.373,0,0,1-.171.3l-.044.061a.431.431,0,0,1-.234,0Z" transform="translate(-380.197 -531.939)" fill="#dc6161" opacity="0.619"/>
            <path id="Path_5008" data-name="Path 5008" d="M380.48,532.615c-.02-.021.1-.033.111-.049l.011-.009c.014-.014.14-.187.158-.165l1.017.972a1.061,1.061,0,0,1-.15.265l-.039.054a.369.369,0,0,1-.213-.005Z" transform="translate(-380.23 -531.993)" fill="#d95555" opacity="0.667"/>
            <path id="Path_5009" data-name="Path 5009" d="M380.531,532.672c-.019-.021.08-.035.094-.05l.01-.008c.014-.013.126-.161.144-.14l1.007.978a.814.814,0,0,1-.129.233l-.034.046c-.056.016-.172.018-.192-.005Z" transform="translate(-380.264 -532.047)" fill="#d64949" opacity="0.714"/>
            <path id="Path_5010" data-name="Path 5010" d="M380.582,532.728c-.02-.021.064-.037.077-.051l.008-.006c.013-.012.112-.135.13-.113l1,.984c.009.033-.093.189-.107.2l-.028.038c-.048.014-.151.017-.17-.006Z" transform="translate(-380.297 -532.101)" fill="#d43d3d" opacity="0.762"/>
            <path id="Path_5011" data-name="Path 5011" d="M380.633,532.784c-.02-.022.048-.039.06-.052l.007-.005c.011-.011.1-.11.115-.088l.987.99c.011.031-.073.158-.086.17l-.023.031c-.04.013-.129.017-.148-.005Z" transform="translate(-380.33 -532.154)" fill="#d13131" opacity="0.81"/>
            <path id="Path_5012" data-name="Path 5012" d="M380.683,532.84c-.02-.022.033-.041.044-.054l0,0c.011-.009.084-.084.1-.062l.978,1c.014.029-.053.127-.064.138l-.018.023c-.033.012-.108.017-.127-.006Z" transform="translate(-380.362 -532.207)" fill="#ce2424" opacity="0.857"/>
            <path id="Path_5013" data-name="Path 5013" d="M380.732,532.894c-.02-.022.017-.043.026-.055l0,0c.01-.008.07-.058.087-.036l.968,1c.016.026-.033.1-.043.106l-.013.016c-.025.011-.086.017-.106-.006Z" transform="translate(-380.394 -532.259)" fill="#cb1818" opacity="0.905"/>
            <path id="Path_5014" data-name="Path 5014" d="M380.779,532.945c-.02-.021,0-.045.01-.055h0c.009-.007.056-.032.073-.01l.958,1.008c.019.024-.013.066-.021.074l-.008.008c-.018.01-.065.017-.085-.006Z" transform="translate(-380.423 -532.308)" fill="#c90c0c" opacity="0.952"/>
            <path id="Path_5015" data-name="Path 5015" d="M380.82,532.982a.047.047,0,0,1-.008-.057h0a.052.052,0,0,1,.058.016l.949,1.014c.022.022.007.035,0,.042h0a.049.049,0,0,1-.063-.006Z" transform="translate(-380.447 -532.342)" fill="#c60000"/>
          </g>
          <g id="Group_5535" data-name="Group 5535" transform="translate(37.428 14.06)" opacity="0.64" style="mix-blend-mode: multiply;isolation: isolate">
            <path id="Path_5016" data-name="Path 5016" d="M429.155,498.262c-.019-.023.353,0,.383-.028l.032-.024a4.926,4.926,0,0,1,.513-.415l1.084.79c-.034.068-.527.58-.559.608l-.107.154a1.535,1.535,0,0,1-.5,0Z" transform="translate(-429.154 -497.794)" fill="#fff" opacity="0"/>
            <path id="Path_5017" data-name="Path 5017" d="M429.212,498.305c-.019-.023.336,0,.364-.029l.03-.023a4.473,4.473,0,0,1,.492-.395l1.076.8c-.031.066-.5.554-.532.58l-.1.147a1.438,1.438,0,0,1-.48,0Z" transform="translate(-429.192 -497.836)" fill="#fcf3f3" opacity="0.048"/>
            <path id="Path_5018" data-name="Path 5018" d="M429.27,498.349c-.02-.023.318,0,.345-.031l.028-.022a4.026,4.026,0,0,1,.47-.374l1.068.805a7.25,7.25,0,0,1-.506.554l-.1.139a1.348,1.348,0,0,1-.459,0Z" transform="translate(-429.23 -497.878)" fill="#fae7e7" opacity="0.095"/>
            <path id="Path_5019" data-name="Path 5019" d="M429.328,498.392c-.019-.022.3-.006.327-.031l.027-.021a3.637,3.637,0,0,1,.448-.354l1.06.813a6.375,6.375,0,0,1-.479.527l-.092.132a1.257,1.257,0,0,1-.438,0Z" transform="translate(-429.268 -497.92)" fill="#f7dbdb" opacity="0.143"/>
            <path id="Path_5020" data-name="Path 5020" d="M429.385,498.436c-.019-.022.284-.008.309-.033l.025-.02a3.3,3.3,0,0,1,.426-.333l1.053.821a5.731,5.731,0,0,1-.453.5l-.087.125a1.173,1.173,0,0,1-.417,0Z" transform="translate(-429.305 -497.962)" fill="#f4cece" opacity="0.19"/>
            <path id="Path_5021" data-name="Path 5021" d="M429.443,498.479c-.019-.022.266-.011.29-.034l.024-.018a2.95,2.95,0,0,1,.4-.313l1.045.829a5.139,5.139,0,0,1-.426.473l-.082.118a1.073,1.073,0,0,1-.4,0Z" transform="translate(-429.343 -498.004)" fill="#f1c2c2" opacity="0.238"/>
            <path id="Path_5022" data-name="Path 5022" d="M429.5,498.523c-.019-.022.248-.013.271-.035l.023-.018a2.617,2.617,0,0,1,.383-.292l1.037.836a4.453,4.453,0,0,1-.4.446l-.077.111a.993.993,0,0,1-.375,0Z" transform="translate(-429.381 -498.046)" fill="#efb6b6" opacity="0.286"/>
            <path id="Path_5023" data-name="Path 5023" d="M429.559,498.566c-.019-.021.231-.015.253-.036l.021-.016a2.277,2.277,0,0,1,.361-.272l1.029.844a3.919,3.919,0,0,1-.374.419l-.072.1a.913.913,0,0,1-.354,0Z" transform="translate(-429.419 -498.088)" fill="#ecaaaa" opacity="0.333"/>
            <path id="Path_5024" data-name="Path 5024" d="M429.617,498.609c-.02-.021.213-.017.234-.038l.019-.015a1.974,1.974,0,0,1,.34-.251l1.021.851a3.307,3.307,0,0,1-.347.392l-.067.1a.829.829,0,0,1-.333,0Z" transform="translate(-429.457 -498.13)" fill="#e99e9e" opacity="0.381"/>
            <path id="Path_5025" data-name="Path 5025" d="M429.675,498.653c-.02-.021.2-.019.215-.039l.018-.014c.023-.02.3-.251.318-.231l1.013.859a2.89,2.89,0,0,1-.32.365l-.062.089a.753.753,0,0,1-.312,0Z" transform="translate(-429.495 -498.171)" fill="#e79292" opacity="0.429"/>
            <path id="Path_5026" data-name="Path 5026" d="M429.731,498.7c-.019-.021.178-.021.2-.04l.016-.013c.022-.019.277-.23.3-.21l1,.866a2.421,2.421,0,0,1-.294.338l-.057.082a.675.675,0,0,1-.292,0Z" transform="translate(-429.533 -498.214)" fill="#e48686" opacity="0.476"/>
            <path id="Path_5027" data-name="Path 5027" d="M429.789,498.74c-.019-.021.161-.023.179-.041l.015-.012c.021-.018.255-.21.275-.189l1,.874a2.029,2.029,0,0,1-.267.311l-.052.075a.6.6,0,0,1-.271,0Z" transform="translate(-429.57 -498.256)" fill="#e17979" opacity="0.524"/>
            <path id="Path_5028" data-name="Path 5028" d="M429.847,498.783c-.019-.02.143-.025.16-.042l.014-.01c.02-.017.234-.19.253-.169l.989.881a1.644,1.644,0,0,1-.241.284l-.047.067a.525.525,0,0,1-.25,0Z" transform="translate(-429.608 -498.297)" fill="#de6d6d" opacity="0.571"/>
            <path id="Path_5029" data-name="Path 5029" d="M429.9,498.826c-.019-.02.125-.028.141-.044l.012-.009c.019-.015.212-.169.231-.148l.981.889a1.316,1.316,0,0,1-.215.257l-.042.06a.458.458,0,0,1-.229,0Z" transform="translate(-429.646 -498.339)" fill="#dc6161" opacity="0.619"/>
            <path id="Path_5030" data-name="Path 5030" d="M429.962,498.869c-.02-.02.108-.03.123-.045l.01-.008c.018-.014.191-.149.21-.128l.973.9a1.057,1.057,0,0,1-.188.23l-.037.053a.392.392,0,0,1-.208,0Z" transform="translate(-429.684 -498.38)" fill="#d95555" opacity="0.667"/>
            <path id="Path_5031" data-name="Path 5031" d="M430.02,498.912c-.02-.02.091-.032.1-.046l.009-.007c.016-.013.169-.129.188-.107l.965.9c0,.035-.146.191-.161.2l-.032.046a.33.33,0,0,1-.186,0Z" transform="translate(-429.721 -498.422)" fill="#d64949" opacity="0.714"/>
            <path id="Path_5032" data-name="Path 5032" d="M430.077,498.955c-.02-.02.073-.034.085-.047l.008-.006c.015-.012.147-.108.166-.087l.957.912c0,.033-.12.165-.135.176l-.027.038c-.047.012-.146.017-.166,0Z" transform="translate(-429.759 -498.463)" fill="#d43d3d" opacity="0.762"/>
            <path id="Path_5033" data-name="Path 5033" d="M430.133,499c-.019-.019.056-.036.067-.048l.006,0c.014-.011.125-.088.145-.067l.949.92c.007.031-.095.139-.109.149l-.022.031c-.039.011-.125.016-.145-.005Z" transform="translate(-429.795 -498.504)" fill="#d13131" opacity="0.81"/>
            <path id="Path_5034" data-name="Path 5034" d="M430.189,499.038c-.019-.019.038-.038.049-.049l0,0c.013-.01.1-.068.123-.046l.941.927c.01.029-.069.113-.082.122l-.017.024c-.031.01-.1.017-.124-.005Z" transform="translate(-429.832 -498.544)" fill="#ce2424" opacity="0.857"/>
            <path id="Path_5035" data-name="Path 5035" d="M430.245,499.079c-.019-.019.021-.04.03-.051l0,0c.012-.009.082-.047.1-.025l.933.935c.012.026-.044.087-.056.1l-.012.017c-.023.008-.083.016-.1-.006Z" transform="translate(-429.868 -498.583)" fill="#cb1818" opacity="0.905"/>
            <path id="Path_5036" data-name="Path 5036" d="M430.3,499.116c-.019-.019,0-.043.011-.052h0c.011-.007.06-.026.08,0l.925.943c.015.024-.018.061-.029.068l-.007.01c-.015.007-.062.016-.082-.006Z" transform="translate(-429.901 -498.618)" fill="#c90c0c" opacity="0.952"/>
            <path id="Path_5037" data-name="Path 5037" d="M430.345,499.141a.042.042,0,0,1-.007-.053h0a.052.052,0,0,1,.058.016l.917.95c.017.022.007.035,0,.041l0,0a.051.051,0,0,1-.061-.006Z" transform="translate(-429.927 -498.642)" fill="#c60000"/>
          </g>
          <g id="Group_5536" data-name="Group 5536" transform="translate(29.783 14.496)" style="mix-blend-mode: screen;isolation: isolate">
            <path id="Path_5038" data-name="Path 5038" d="M409.021,500.077c.02.02-.891.08-.92.108l-.034.024c-.029.03-.261.315-.281.294l-.939-1.138a.879.879,0,0,1,.16-.212l.145-.071a4.178,4.178,0,0,1,.557-.007Z" transform="translate(-406.848 -499.066)" fill="#d10000" opacity="0"/>
            <path id="Path_5039" data-name="Path 5039" d="M409,500.079c.019.02-.848.078-.876.1l-.032.023c-.028.029-.251.3-.27.279l-.939-1.129a.808.808,0,0,1,.152-.2l.138-.068a3.863,3.863,0,0,1,.533-.006Z" transform="translate(-406.868 -499.069)" fill="#d30606" opacity="0.048"/>
            <path id="Path_5040" data-name="Path 5040" d="M408.97,500.081c.019.019-.8.076-.832.1l-.03.022c-.027.028-.24.285-.259.265l-.938-1.12a.758.758,0,0,1,.144-.2l.132-.064a3.447,3.447,0,0,1,.51-.006Z" transform="translate(-406.889 -499.072)" fill="#d50d0d" opacity="0.095"/>
            <path id="Path_5041" data-name="Path 5041" d="M408.944,500.083c.019.019-.762.075-.788.1l-.029.021c-.026.027-.229.271-.248.25l-.937-1.112a.679.679,0,0,1,.137-.188l.124-.061a3.146,3.146,0,0,1,.486-.005Z" transform="translate(-406.909 -499.074)" fill="#d81313" opacity="0.143"/>
            <path id="Path_5042" data-name="Path 5042" d="M408.918,500.085c.019.019-.718.073-.744.1l-.027.02c-.024.026-.218.256-.238.236l-.937-1.1a.625.625,0,0,1,.129-.18l.117-.058a2.834,2.834,0,0,1,.463,0Z" transform="translate(-406.929 -499.077)" fill="#da1a1a" opacity="0.19"/>
            <path id="Path_5043" data-name="Path 5043" d="M408.892,500.086c.019.02-.675.072-.7.095l-.026.018c-.023.025-.208.242-.227.221L407,499.326a.563.563,0,0,1,.122-.172l.111-.055a2.531,2.531,0,0,1,.439,0Z" transform="translate(-406.95 -499.079)" fill="#dc2020" opacity="0.238"/>
            <path id="Path_5044" data-name="Path 5044" d="M408.866,500.088c.02.02-.632.07-.655.092l-.024.017c-.022.024-.2.227-.216.207l-.936-1.086a.506.506,0,0,1,.114-.163l.1-.051a2.258,2.258,0,0,1,.416,0Z" transform="translate(-406.97 -499.082)" fill="#de2727" opacity="0.286"/>
            <path id="Path_5045" data-name="Path 5045" d="M408.84,500.09c.019.019-.589.068-.611.089l-.023.016c-.021.023-.186.212-.206.192l-.935-1.078a.457.457,0,0,1,.106-.156l.1-.048a1.992,1.992,0,0,1,.392,0Z" transform="translate(-406.991 -499.084)" fill="#e02d2d" opacity="0.333"/>
            <path id="Path_5046" data-name="Path 5046" d="M408.814,500.092c.019.019-.546.067-.568.086l-.021.015c-.02.022-.176.2-.2.177L407.1,499.3a.4.4,0,0,1,.1-.147l.09-.044a1.74,1.74,0,0,1,.369,0Z" transform="translate(-407.011 -499.087)" fill="#e33434" opacity="0.381"/>
            <path id="Path_5047" data-name="Path 5047" d="M408.788,500.094c.019.019-.5.065-.524.084l-.019.014c-.019.021-.165.183-.184.162l-.934-1.06a.356.356,0,0,1,.091-.14l.083-.041a1.536,1.536,0,0,1,.345,0Z" transform="translate(-407.031 -499.09)" fill="#e53a3a" opacity="0.429"/>
            <path id="Path_5048" data-name="Path 5048" d="M408.761,500.1c.02.02-.46.063-.479.081l-.018.013c-.017.02-.154.169-.173.148l-.934-1.052a.315.315,0,0,1,.084-.131l.076-.037a1.3,1.3,0,0,1,.322,0Z" transform="translate(-407.051 -499.092)" fill="#e74141" opacity="0.476"/>
            <path id="Path_5049" data-name="Path 5049" d="M408.735,500.1c.02.02-.416.062-.435.078l-.016.012c-.016.019-.144.154-.163.134l-.933-1.044a.271.271,0,0,1,.076-.123l.069-.034a1.122,1.122,0,0,1,.3,0Z" transform="translate(-407.071 -499.095)" fill="#e94747" opacity="0.524"/>
            <path id="Path_5050" data-name="Path 5050" d="M408.709,500.1c.019.019-.373.06-.391.076l-.014.011c-.015.018-.133.14-.152.119l-.932-1.035a.228.228,0,0,1,.069-.115l.062-.031a.955.955,0,0,1,.275,0Z" transform="translate(-407.092 -499.097)" fill="#eb4e4e" opacity="0.571"/>
            <path id="Path_5051" data-name="Path 5051" d="M408.683,500.1c.019.019-.331.058-.347.073l-.013.009c-.014.017-.122.125-.142.1l-.932-1.027a.191.191,0,0,1,.061-.107l.055-.027a.786.786,0,0,1,.251,0Z" transform="translate(-407.112 -499.1)" fill="#ed5454" opacity="0.619"/>
            <path id="Path_5052" data-name="Path 5052" d="M408.658,500.1c.019.019-.287.056-.3.07l-.011.008c-.013.016-.111.11-.131.09l-.931-1.018a.162.162,0,0,1,.053-.1l.049-.024a.646.646,0,0,1,.227,0Z" transform="translate(-407.133 -499.102)" fill="#f05b5b" opacity="0.667"/>
            <path id="Path_5053" data-name="Path 5053" d="M408.632,500.1c.019.019-.244.055-.259.068l-.01.007c-.012.015-.1.1-.12.075l-.931-1.01a.131.131,0,0,1,.046-.091l.041-.02a.518.518,0,0,1,.2,0Z" transform="translate(-407.153 -499.104)" fill="#f26161" opacity="0.714"/>
            <path id="Path_5054" data-name="Path 5054" d="M408.6,500.106c.02.02-.2.053-.215.065l-.008.006c-.011.013-.09.081-.109.061l-.93-1a.105.105,0,0,1,.038-.083l.035-.017c.039-.006.161-.017.18,0Z" transform="translate(-407.173 -499.107)" fill="#f46868" opacity="0.762"/>
            <path id="Path_5055" data-name="Path 5055" d="M408.577,500.107c.02.019-.158.051-.171.063l-.007,0c-.01.013-.079.067-.1.046l-.929-.993a.082.082,0,0,1,.031-.075l.027-.013c.034-.006.138-.016.157,0Z" transform="translate(-407.191 -499.109)" fill="#f66e6e" opacity="0.81"/>
            <path id="Path_5056" data-name="Path 5056" d="M408.548,500.109c.019.019-.115.05-.127.06l0,0c-.009.012-.069.052-.088.031l-.929-.984a.062.062,0,0,1,.023-.066l.021-.01c.028-.006.114-.015.133,0Z" transform="translate(-407.208 -499.112)" fill="#f87575" opacity="0.857"/>
            <path id="Path_5057" data-name="Path 5057" d="M408.517,500.111c.019.019-.072.048-.083.057l0,0c-.007.01-.058.037-.077.017l-.928-.976a.046.046,0,0,1,.015-.059l.014-.007c.022-.007.091-.015.11,0Z" transform="translate(-407.224 -499.114)" fill="#fb7b7b" opacity="0.905"/>
            <path id="Path_5058" data-name="Path 5058" d="M408.486,500.112c.019.019-.029.047-.039.055h0a.053.053,0,0,1-.066,0l-.928-.967c-.018-.026,0-.038.008-.05l.007,0c.016-.007.067-.014.086.005Z" transform="translate(-407.239 -499.116)" fill="#fd8282" opacity="0.952"/>
            <path id="Path_5059" data-name="Path 5059" d="M408.452,500.113a.037.037,0,0,1,.005.052h0c-.005.009-.036.009-.056-.012l-.927-.959c-.022-.022-.01-.032,0-.042h0a.056.056,0,0,1,.063.006Z" transform="translate(-407.251 -499.118)" fill="#f88"/>
          </g>
          <g id="Group_5537" data-name="Group 5537" transform="translate(9.977 26.081)" style="mix-blend-mode: screen;isolation: isolate">
            <path id="Path_5060" data-name="Path 5060" d="M350.642,534.077c.014.026-.53.011-.567.032l-.034.019c-.039.023-.157.142-.174.117l-.8-1.206a.837.837,0,0,1,.194-.161l.01-.012a2.084,2.084,0,0,1,.474.022Z" transform="translate(-349.068 -532.864)" fill="#f21616" opacity="0"/>
            <path id="Path_5061" data-name="Path 5061" d="M350.635,534.076c.015.025-.5.013-.539.033l-.032.018c-.037.022-.152.136-.169.11l-.8-1.2a.766.766,0,0,1,.185-.155l.009-.012a1.925,1.925,0,0,1,.455.022Z" transform="translate(-349.088 -532.866)" fill="#f21a1a" opacity="0.048"/>
            <path id="Path_5062" data-name="Path 5062" d="M350.628,534.076c.015.025-.479.014-.513.033l-.031.017c-.036.021-.146.129-.163.1l-.791-1.2a.709.709,0,0,1,.177-.15l.009-.011a1.766,1.766,0,0,1,.435.022Z" transform="translate(-349.109 -532.868)" fill="#f31e1e" opacity="0.095"/>
            <path id="Path_5063" data-name="Path 5063" d="M350.621,534.074c.014.025-.454.016-.486.035l-.029.016c-.034.021-.14.123-.157.1l-.788-1.195a.632.632,0,0,1,.168-.144l.008-.011a1.617,1.617,0,0,1,.415.021Z" transform="translate(-349.129 -532.869)" fill="#f32222" opacity="0.143"/>
            <path id="Path_5064" data-name="Path 5064" d="M350.614,534.074c.015.025-.428.017-.459.035l-.027.015c-.033.02-.134.116-.151.091l-.784-1.191a.578.578,0,0,1,.159-.139l.008-.01a1.467,1.467,0,0,1,.4.021Z" transform="translate(-349.149 -532.871)" fill="#f32626" opacity="0.19"/>
            <path id="Path_5065" data-name="Path 5065" d="M350.607,534.073c.014.025-.4.02-.433.037l-.026.014c-.032.019-.129.109-.145.084l-.781-1.187a.518.518,0,0,1,.15-.133l.007-.009a1.316,1.316,0,0,1,.376.021Z" transform="translate(-349.17 -532.873)" fill="#f42a2a" opacity="0.238"/>
            <path id="Path_5066" data-name="Path 5066" d="M350.6,534.073c.015.025-.377.021-.406.037l-.024.013c-.03.019-.123.1-.14.077l-.777-1.182a.467.467,0,0,1,.141-.127l.007-.009a1.2,1.2,0,0,1,.356.021Z" transform="translate(-349.19 -532.875)" fill="#f42e2e" opacity="0.286"/>
            <path id="Path_5067" data-name="Path 5067" d="M350.594,534.072a3.54,3.54,0,0,1-.379.038l-.023.012c-.029.018-.117.1-.134.071l-.773-1.179a.419.419,0,0,1,.132-.121l.007-.008a1.076,1.076,0,0,1,.337.021Z" transform="translate(-349.211 -532.877)" fill="#f43232" opacity="0.333"/>
            <path id="Path_5068" data-name="Path 5068" d="M350.587,534.071c.014.025-.326.024-.352.039l-.021.011c-.027.017-.111.089-.128.064l-.769-1.175a.365.365,0,0,1,.124-.116l.006-.008a.966.966,0,0,1,.317.021Z" transform="translate(-349.231 -532.879)" fill="#f53636" opacity="0.381"/>
            <path id="Path_5069" data-name="Path 5069" d="M350.58,534.071c.015.025-.3.026-.326.04l-.019.01c-.026.016-.106.082-.122.057l-.766-1.171a.321.321,0,0,1,.115-.11l.005-.007a.84.84,0,0,1,.3.02Z" transform="translate(-349.251 -532.881)" fill="#f53a3a" opacity="0.429"/>
            <path id="Path_5070" data-name="Path 5070" d="M350.573,534.07c.015.025-.275.027-.3.041l-.018.01c-.025.015-.1.075-.117.05L349.378,533a.285.285,0,0,1,.106-.1l.005-.006a.748.748,0,0,1,.277.02Z" transform="translate(-349.272 -532.883)" fill="#f53e3e" opacity="0.476"/>
            <path id="Path_5071" data-name="Path 5071" d="M350.566,534.07c.014.025-.25.029-.272.042l-.016.009c-.023.015-.094.068-.111.044L349.409,533a.244.244,0,0,1,.1-.1l0-.006c.089,0,.242,0,.258.02Z" transform="translate(-349.292 -532.885)" fill="#f64343" opacity="0.524"/>
            <path id="Path_5072" data-name="Path 5072" d="M350.559,534.069c.015.025-.224.031-.245.043l-.014.008c-.022.014-.088.061-.105.037L349.44,533a.209.209,0,0,1,.088-.093l0-.005c.082,0,.222,0,.238.02Z" transform="translate(-349.312 -532.887)" fill="#f64747" opacity="0.571"/>
            <path id="Path_5073" data-name="Path 5073" d="M350.553,534.068c.015.024-.2.032-.219.044l-.013.007c-.021.013-.083.055-.1.03l-.751-1.155c.008-.037.058-.075.08-.087l0,0c.074,0,.2,0,.218.019Z" transform="translate(-349.333 -532.888)" fill="#f64b4b" opacity="0.619"/>
            <path id="Path_5074" data-name="Path 5074" d="M350.546,534.068c.015.025-.173.034-.192.045l-.011.006c-.019.012-.077.048-.094.024l-.747-1.151c0-.036.051-.07.071-.082l0,0c.066,0,.182-.005.2.019Z" transform="translate(-349.353 -532.89)" fill="#f74f4f" opacity="0.667"/>
            <path id="Path_5075" data-name="Path 5075" d="M350.539,534.067c.015.024-.148.036-.165.046l-.01.005c-.018.012-.071.041-.088.017l-.744-1.147c0-.034.043-.065.062-.076l0,0c.059,0,.163-.005.179.019Z" transform="translate(-349.374 -532.892)" fill="#f75353" opacity="0.714"/>
            <path id="Path_5076" data-name="Path 5076" d="M350.532,534.066c.014.025-.123.038-.138.047l-.008,0c-.016.011-.065.034-.082.01l-.74-1.143c0-.033.035-.06.053-.071l0,0c.051,0,.143,0,.159.019Z" transform="translate(-349.394 -532.894)" fill="#f75757" opacity="0.762"/>
            <path id="Path_5077" data-name="Path 5077" d="M350.525,534.066c.015.024-.1.039-.111.048l-.007,0c-.015.01-.06.027-.076,0l-.736-1.139c0-.031.028-.055.045-.065l0,0c.043,0,.123,0,.14.019Z" transform="translate(-349.414 -532.896)" fill="#f85b5b" opacity="0.81"/>
            <path id="Path_5078" data-name="Path 5078" d="M350.517,534.065c.015.024-.072.041-.085.049l0,0c-.014.009-.054.02-.071,0l-.732-1.135c-.007-.029.02-.05.036-.06v0c.035,0,.1,0,.12.019Z" transform="translate(-349.433 -532.898)" fill="#f85f5f" opacity="0.857"/>
            <path id="Path_5079" data-name="Path 5079" d="M350.507,534.065c.014.024-.046.042-.058.05l0,0a.052.052,0,0,1-.065-.01l-.729-1.131a.047.047,0,0,1,.027-.054h0c.027,0,.083-.005.1.018Z" transform="translate(-349.45 -532.9)" fill="#f86363" opacity="0.905"/>
            <path id="Path_5080" data-name="Path 5080" d="M350.5,534.064c.015.024-.021.044-.032.051h0a.048.048,0,0,1-.059-.016l-.725-1.127a.035.035,0,0,1,.018-.048h0c.02,0,.063-.005.08.018Z" transform="translate(-349.467 -532.902)" fill="#f96767" opacity="0.952"/>
            <path id="Path_5081" data-name="Path 5081" d="M350.485,534.064a.038.038,0,0,1,0,.052h0c-.01.007-.036,0-.053-.023l-.722-1.123c-.014-.024,0-.035.01-.043h0a.057.057,0,0,1,.06.018Z" transform="translate(-349.483 -532.904)" fill="#f96b6b"/>
          </g>
          <path id="Path_5082" data-name="Path 5082" d="M466,459.215l10.955-.749-.273-.138-11.132.6Z" transform="translate(-415.643 -457.795)" opacity="0.69" fill="url(#radial-gradient)" style="mix-blend-mode: screen;isolation: isolate"/>
          <path id="Path_5083" data-name="Path 5083" d="M381.35,458.781a.13.13,0,0,0-.143-.168l-10.73.68c-.1.007-.131.074-.063.15l2.137,2.481a.181.181,0,0,1-.022.257l-13.633,11.2a.611.611,0,0,1-.324.117h-7.315a.38.38,0,0,0-.285.152L342,485.129a.354.354,0,0,1-.283.155H331.269a.67.67,0,0,0-.334.108l-10.728,4.3c-.082.059-.1.116-.019.175l.624.482a.224.224,0,0,0,.262,0l10.861-2.6a.809.809,0,0,1,.341-.091h12.551a.417.417,0,0,0,.293-.149l7.586-8.758a.4.4,0,0,1,.29-.148l7.409-.351a.676.676,0,0,0,.331-.107l15.913-11.19a.209.209,0,0,1,.271.033l1.965,2.284c.063.075.135.057.157-.041Z" transform="translate(-320.076 -457.982)" fill="url(#radial-gradient-2)"/>
          <g id="Group_5538" data-name="Group 5538" transform="translate(10.702 27.114)" opacity="0.73" style="mix-blend-mode: color-dodge;isolation: isolate">
            <path id="Path_5084" data-name="Path 5084" d="M362.419,536.049c.044.137-3.788.121-7.344.121-1.777,0-3.974.081-3.892-.136.073-.2.16-.113,3.718-.113S362.327,535.76,362.419,536.049Z" transform="translate(-351.18 -535.877)" fill="#fff" opacity="0"/>
            <path id="Path_5085" data-name="Path 5085" d="M362.453,536.06c.042.131-3.808.117-7.287.117-1.784,0-3.91.076-3.844-.133.059-.187.2-.109,3.679-.109S362.366,535.783,362.453,536.06Z" transform="translate(-351.273 -535.888)" fill="#fff" opacity="0.048"/>
            <path id="Path_5086" data-name="Path 5086" d="M362.487,536.069c.039.126-3.829.114-7.229.114-1.791,0-3.847.07-3.8-.128.044-.176.237-.1,3.639-.1S362.4,535.806,362.487,536.069Z" transform="translate(-351.364 -535.899)" fill="#fff" opacity="0.095"/>
            <path id="Path_5087" data-name="Path 5087" d="M362.521,536.079c.038.121-3.849.11-7.171.11-1.8,0-3.783.064-3.749-.124.03-.166.275-.1,3.6-.1S362.443,535.828,362.521,536.079Z" transform="translate(-351.456 -535.91)" fill="#fff" opacity="0.143"/>
            <path id="Path_5088" data-name="Path 5088" d="M362.554,536.089c.036.115-3.87.106-7.114.106-1.8,0-3.719.057-3.7-.12.015-.156.314-.1,3.561-.1S362.481,535.85,362.554,536.089Z" transform="translate(-351.547 -535.921)" fill="#fff" opacity="0.19"/>
            <path id="Path_5089" data-name="Path 5089" d="M362.587,536.1c.034.11-3.89.1-7.057.1a17.261,17.261,0,0,1-3.654-.116c0-.148.352-.094,3.522-.094S362.518,535.873,362.587,536.1Z" transform="translate(-351.638 -535.932)" fill="#fff" opacity="0.238"/>
            <path id="Path_5090" data-name="Path 5090" d="M362.616,536.108c.032.1-3.91.1-7,.1a17.8,17.8,0,0,1-3.607-.111c-.037-.137.391-.09,3.482-.09S362.551,535.9,362.616,536.108Z" transform="translate(-351.724 -535.943)" fill="#fff" opacity="0.286"/>
            <path id="Path_5091" data-name="Path 5091" d="M362.645,536.118c.03.1-3.93.095-6.941.095a18.344,18.344,0,0,1-3.559-.108c-.056-.126.429-.086,3.443-.086S362.585,535.918,362.645,536.118Z" transform="translate(-351.811 -535.953)" fill="#fff" opacity="0.333"/>
            <path id="Path_5092" data-name="Path 5092" d="M362.673,536.128c.028.094-3.95.091-6.884.091a18.977,18.977,0,0,1-3.511-.1c-.074-.116.468-.082,3.4-.082S362.618,535.941,362.673,536.128Z" transform="translate(-351.897 -535.964)" fill="#fff" opacity="0.381"/>
            <path id="Path_5093" data-name="Path 5093" d="M362.7,536.137c.026.089-3.971.087-6.827.087a19.7,19.7,0,0,1-3.464-.1c-.092-.106.506-.078,3.364-.078A68.749,68.749,0,0,1,362.7,536.137Z" transform="translate(-351.983 -535.975)" fill="#fff" opacity="0.429"/>
            <path id="Path_5094" data-name="Path 5094" d="M362.729,536.147c.024.084-3.991.084-6.769.084a20.649,20.649,0,0,1-3.416-.1c-.111-.1.545-.074,3.325-.074S362.683,535.985,362.729,536.147Z" transform="translate(-352.069 -535.986)" fill="#fff" opacity="0.476"/>
            <path id="Path_5095" data-name="Path 5095" d="M362.756,536.157c.022.078-4.011.079-6.711.079a21.662,21.662,0,0,1-3.368-.091c-.129-.085.583-.071,3.285-.071S362.714,536.007,362.756,536.157Z" transform="translate(-352.154 -535.997)" fill="#fff" opacity="0.524"/>
            <path id="Path_5096" data-name="Path 5096" d="M362.783,536.166c.02.073-4.032.076-6.654.076a22.932,22.932,0,0,1-3.321-.087c-.147-.074.621-.067,3.246-.067S362.746,536.029,362.783,536.166Z" transform="translate(-352.239 -536.007)" fill="#fff" opacity="0.571"/>
            <path id="Path_5097" data-name="Path 5097" d="M362.81,536.175c.018.067-4.052.072-6.6.072a24.417,24.417,0,0,1-3.273-.083,17.491,17.491,0,0,1,3.207-.063C358.692,536.1,362.777,536.052,362.81,536.175Z" transform="translate(-352.323 -536.018)" fill="#fff" opacity="0.619"/>
            <path id="Path_5098" data-name="Path 5098" d="M362.837,536.184c.016.062-4.072.069-6.539.069a26.492,26.492,0,0,1-3.226-.078,19.519,19.519,0,0,1,3.168-.06C358.706,536.115,362.808,536.073,362.837,536.184Z" transform="translate(-352.408 -536.028)" fill="#fff" opacity="0.667"/>
            <path id="Path_5099" data-name="Path 5099" d="M362.867,536.193c.014.057-4.093.064-6.481.064-1.882,0-3.08-.036-3.178-.074a16.663,16.663,0,0,1,3.128-.055C358.725,536.128,362.843,536.1,362.867,536.193Z" transform="translate(-352.497 -536.038)" fill="#fff" opacity="0.714"/>
            <path id="Path_5100" data-name="Path 5100" d="M362.892,536.2c.012.051-4.113.061-6.424.061-1.889,0-3.024-.04-3.13-.07a19.372,19.372,0,0,1,3.089-.052C358.738,536.141,362.873,536.117,362.892,536.2Z" transform="translate(-352.58 -536.048)" fill="#fff" opacity="0.762"/>
            <path id="Path_5101" data-name="Path 5101" d="M362.918,536.21c.01.046-4.133.057-6.366.057-1.9,0-2.967-.044-3.083-.066a23.788,23.788,0,0,1,3.05-.048C358.752,536.153,362.9,536.138,362.918,536.21Z" transform="translate(-352.663 -536.058)" fill="#fff" opacity="0.81"/>
            <path id="Path_5102" data-name="Path 5102" d="M362.943,536.216c.008.041-4.153.054-6.309.054-1.9,0-2.909-.049-3.035-.062-.256-.027.852-.044,3.011-.044S362.932,536.157,362.943,536.216Z" transform="translate(-352.746 -536.065)" fill="#fff" opacity="0.857"/>
            <path id="Path_5103" data-name="Path 5103" d="M362.969,536.222c.006.036-4.174.049-6.251.049-1.91,0-2.851-.052-2.988-.058-.276-.011.891-.04,2.971-.04S362.962,536.175,362.969,536.222Z" transform="translate(-352.83 -536.071)" fill="#fff" opacity="0.905"/>
            <path id="Path_5104" data-name="Path 5104" d="M363,536.226c0,.031-4.194.046-6.194.046-1.917,0-2.792-.056-2.94-.054-.294.005.93-.036,2.932-.036S362.992,536.193,363,536.226Z" transform="translate(-352.914 -536.077)" fill="#fff" opacity="0.952"/>
            <path id="Path_5105" data-name="Path 5105" d="M363.021,536.23c0,.025-4.214.042-6.136.042s-2.733-.062-2.893-.05c-.312.018.968-.033,2.893-.033S363.021,536.21,363.021,536.23Z" transform="translate(-352.998 -536.083)" fill="#fff"/>
          </g>
          <g id="Group_5539" data-name="Group 5539" transform="translate(38.678 4.131)" opacity="0.75" style="mix-blend-mode: color-dodge;isolation: isolate">
            <path id="Path_5106" data-name="Path 5106" d="M446.58,468.843c.145.209-5.112,4.405-9.31,7.85-2.1,1.719-4.248,3.554-4.4,3.4-.206-.206-.232.049,3.97-3.393S446.336,468.493,446.58,468.843Z" transform="translate(-432.799 -468.825)" fill="#fff" opacity="0"/>
            <path id="Path_5107" data-name="Path 5107" d="M446.419,469.444c.139.2-4.955,4.269-9.061,7.638-2.1,1.725-4.2,3.507-4.355,3.37-.21-.184-.168,0,3.943-3.366S446.186,469.11,446.419,469.444Z" transform="translate(-432.89 -469.22)" fill="#fff" opacity="0.048"/>
            <path id="Path_5108" data-name="Path 5108" d="M446.257,470.045c.133.191-4.8,4.132-8.813,7.426-2.112,1.732-4.15,3.46-4.309,3.34-.215-.162-.1-.047,3.915-3.339S446.034,469.727,446.257,470.045Z" transform="translate(-432.978 -469.616)" fill="#fff" opacity="0.095"/>
            <path id="Path_5109" data-name="Path 5109" d="M446.094,470.646c.126.182-4.642,4-8.564,7.214-2.121,1.739-4.1,3.413-4.264,3.31-.222-.141-.038-.1,3.888-3.312S445.882,470.344,446.094,470.646Z" transform="translate(-433.065 -470.012)" fill="#fff" opacity="0.143"/>
            <path id="Path_5110" data-name="Path 5110" d="M445.929,471.247c.12.172-4.485,3.859-8.316,7a34.154,34.154,0,0,1-4.218,3.28c-.228-.119.027-.143,3.861-3.284S445.728,470.961,445.929,471.247Z" transform="translate(-433.152 -470.408)" fill="#fff" opacity="0.19"/>
            <path id="Path_5111" data-name="Path 5111" d="M445.764,471.848c.113.163-4.328,3.722-8.067,6.79a35.5,35.5,0,0,1-4.172,3.249c-.236-.1.092-.191,3.834-3.257S445.574,471.578,445.764,471.848Z" transform="translate(-433.238 -470.803)" fill="#fff" opacity="0.238"/>
            <path id="Path_5112" data-name="Path 5112" d="M445.6,472.45c.107.154-4.171,3.585-7.818,6.577a37.069,37.069,0,0,1-4.127,3.22c-.244-.076.156-.239,3.807-3.23S445.419,472.2,445.6,472.45Z" transform="translate(-433.322 -471.199)" fill="#fff" opacity="0.286"/>
            <path id="Path_5113" data-name="Path 5113" d="M445.432,473.051c.1.144-4.015,3.449-7.57,6.365a38.833,38.833,0,0,1-4.081,3.19c-.253-.054.221-.287,3.779-3.2S445.264,472.812,445.432,473.051Z" transform="translate(-433.407 -471.595)" fill="#fff" opacity="0.333"/>
            <path id="Path_5114" data-name="Path 5114" d="M445.264,473.652c.095.135-3.858,3.312-7.322,6.153a40.815,40.815,0,0,1-4.035,3.159c-.262-.031.286-.335,3.752-3.175S445.107,473.429,445.264,473.652Z" transform="translate(-433.49 -471.991)" fill="#fff" opacity="0.381"/>
            <path id="Path_5115" data-name="Path 5115" d="M445.1,474.253c.088.126-3.7,3.175-7.073,5.941a43.1,43.1,0,0,1-3.99,3.129c-.271-.007.351-.383,3.725-3.148S444.95,474.046,445.1,474.253Z" transform="translate(-433.573 -472.386)" fill="#fff" opacity="0.429"/>
            <path id="Path_5116" data-name="Path 5116" d="M444.929,474.853c.082.117-3.545,3.039-6.824,5.729a45.882,45.882,0,0,1-3.944,3.1c-.281.018.415-.431,3.7-3.12S444.794,474.663,444.929,474.853Z" transform="translate(-433.657 -472.782)" fill="#fff" opacity="0.476"/>
            <path id="Path_5117" data-name="Path 5117" d="M444.762,475.454c.075.107-3.388,2.9-6.576,5.517a48.623,48.623,0,0,1-3.9,3.069c-.29.043.481-.479,3.671-3.093S444.637,475.279,444.762,475.454Z" transform="translate(-433.74 -473.177)" fill="#fff" opacity="0.524"/>
            <path id="Path_5118" data-name="Path 5118" d="M444.594,476.055c.069.1-3.231,2.765-6.328,5.3-2.2,1.8-3.685,3-3.853,3.039-.3.069.545-.527,3.643-3.066S444.481,475.9,444.594,476.055Z" transform="translate(-433.823 -473.573)" fill="#fff" opacity="0.571"/>
            <path id="Path_5119" data-name="Path 5119" d="M444.426,476.656c.063.088-3.074,2.629-6.079,5.092-2.2,1.808-3.638,2.957-3.807,3.01-.307.1.61-.575,3.616-3.039S444.324,476.512,444.426,476.656Z" transform="translate(-433.906 -473.968)" fill="#fff" opacity="0.619"/>
            <path id="Path_5120" data-name="Path 5120" d="M444.259,477.256c.057.08-2.917,2.492-5.83,4.881-2.213,1.815-3.592,2.913-3.762,2.979-.316.123.675-.623,3.589-3.011S444.168,477.129,444.259,477.256Z" transform="translate(-433.99 -474.363)" fill="#fff" opacity="0.667"/>
            <path id="Path_5121" data-name="Path 5121" d="M444.092,477.857c.05.07-2.761,2.356-5.582,4.669-2.22,1.821-3.545,2.87-3.716,2.949-.323.15.739-.671,3.562-2.984S444.012,477.746,444.092,477.857Z" transform="translate(-434.074 -474.759)" fill="#fff" opacity="0.714"/>
            <path id="Path_5122" data-name="Path 5122" d="M443.925,478.457c.044.061-2.6,2.219-5.333,4.456-2.229,1.829-3.5,2.826-3.67,2.919a38.213,38.213,0,0,1,3.534-2.956C441.186,480.638,443.856,478.362,443.925,478.457Z" transform="translate(-434.158 -475.154)" fill="#fff" opacity="0.762"/>
            <path id="Path_5123" data-name="Path 5123" d="M443.758,479.058c.038.052-2.447,2.082-5.085,4.245-2.237,1.835-3.45,2.783-3.625,2.889-.336.205.869-.767,3.507-2.929S443.7,478.978,443.758,479.058Z" transform="translate(-434.241 -475.549)" fill="#fff" opacity="0.81"/>
            <path id="Path_5124" data-name="Path 5124" d="M443.591,479.658c.031.043-2.291,1.946-4.836,4.032-2.245,1.842-3.4,2.739-3.579,2.859-.342.233.934-.815,3.48-2.9S443.543,479.595,443.591,479.658Z" transform="translate(-434.325 -475.944)" fill="#fff" opacity="0.857"/>
            <path id="Path_5125" data-name="Path 5125" d="M443.424,480.258c.025.033-2.134,1.809-4.588,3.82-2.254,1.849-3.354,2.7-3.533,2.829-.348.26,1-.862,3.453-2.874S443.388,480.211,443.424,480.258Z" transform="translate(-434.409 -476.339)" fill="#fff" opacity="0.905"/>
            <path id="Path_5126" data-name="Path 5126" d="M443.257,480.858c.019.024-1.977,1.673-4.339,3.608-2.262,1.856-3.307,2.652-3.488,2.8-.353.288,1.063-.91,3.426-2.847S443.232,480.827,443.257,480.858Z" transform="translate(-434.493 -476.733)" fill="#fff" opacity="0.952"/>
            <path id="Path_5127" data-name="Path 5127" d="M443.091,481.458c.012.015-1.82,1.536-4.091,3.4s-3.258,2.608-3.442,2.769c-.358.316,1.128-.959,3.4-2.82S443.076,481.442,443.091,481.458Z" transform="translate(-434.577 -477.127)" fill="#fff"/>
          </g>
          <g id="Group_5540" data-name="Group 5540" transform="translate(30.559 15.313)" style="mix-blend-mode: color-dodge;isolation: isolate">
            <path id="Path_5128" data-name="Path 5128" d="M417.293,501.632c.037.139-3.132.063-6.063.063-1.465,0-1.929.141-1.862-.076.063-.2-1.283-.138,1.651-.138S417.216,501.345,417.293,501.632Z" transform="translate(-409.115 -501.449)" fill="#fff" opacity="0"/>
            <path id="Path_5129" data-name="Path 5129" d="M417.339,501.643c.035.133-3.148.062-6.016.062-1.47,0-1.869.132-1.814-.075.051-.189-1.257-.133,1.613-.133S417.266,501.368,417.339,501.643Z" transform="translate(-409.207 -501.461)" fill="#fff" opacity="0.048"/>
            <path id="Path_5130" data-name="Path 5130" d="M417.384,501.654c.034.128-3.164.061-5.968.061-1.476,0-1.808.122-1.766-.074.038-.178-1.23-.128,1.575-.128S417.315,501.392,417.384,501.654Z" transform="translate(-409.3 -501.473)" fill="#fff" opacity="0.095"/>
            <path id="Path_5131" data-name="Path 5131" d="M417.429,501.665c.032.122-3.181.06-5.92.06-1.482,0-1.747.113-1.718-.073.026-.167-1.2-.123,1.537-.123S417.364,501.416,417.429,501.665Z" transform="translate(-409.393 -501.485)" fill="#fff" opacity="0.143"/>
            <path id="Path_5132" data-name="Path 5132" d="M417.475,501.676c.03.117-3.2.059-5.872.059-1.488,0-1.686.1-1.67-.071.015-.158-1.177-.118,1.5-.118S417.414,501.439,417.475,501.676Z" transform="translate(-409.487 -501.497)" fill="#fff" opacity="0.19"/>
            <path id="Path_5133" data-name="Path 5133" d="M417.52,501.687c.028.111-3.213.058-5.824.058-1.493,0-1.625.093-1.622-.07,0-.148-1.151-.113,1.462-.113S417.463,501.463,417.52,501.687Z" transform="translate(-409.58 -501.509)" fill="#fff" opacity="0.238"/>
            <path id="Path_5134" data-name="Path 5134" d="M417.566,501.7c.027.106-3.229.057-5.776.057-1.5,0-1.564.082-1.574-.069s-1.125-.108,1.424-.108S417.512,501.487,417.566,501.7Z" transform="translate(-409.673 -501.521)" fill="#fff" opacity="0.286"/>
            <path id="Path_5135" data-name="Path 5135" d="M417.611,501.708c.025.1-3.245.056-5.729.056-1.5,0-1.5.07-1.526-.068s-1.1-.1,1.386-.1S417.561,501.51,417.611,501.708Z" transform="translate(-409.766 -501.533)" fill="#fff" opacity="0.333"/>
            <path id="Path_5136" data-name="Path 5136" d="M417.637,501.719c.023.094-3.261.055-5.681.055-1.511,0-1.471.063-1.479-.067-.059-.116-1.071-.1,1.348-.1S417.591,501.533,417.637,501.719Z" transform="translate(-409.839 -501.544)" fill="#fff" opacity="0.381"/>
            <path id="Path_5137" data-name="Path 5137" d="M417.68,501.73c.022.089-3.277.054-5.633.054-1.516,0-1.414.053-1.431-.065-.074-.106-1.045-.093,1.311-.093A46.67,46.67,0,0,1,417.68,501.73Z" transform="translate(-409.93 -501.556)" fill="#fff" opacity="0.429"/>
            <path id="Path_5138" data-name="Path 5138" d="M417.722,501.741c.02.083-3.293.053-5.585.053-1.522,0-1.356.043-1.383-.064-.089-.1-1.019-.087,1.273-.087A49.445,49.445,0,0,1,417.722,501.741Z" transform="translate(-410.021 -501.568)" fill="#fff" opacity="0.476"/>
            <path id="Path_5139" data-name="Path 5139" d="M417.765,501.752c.018.077-3.309.052-5.537.052-1.528,0-1.3.034-1.335-.063-.1-.085-.992-.082,1.235-.082A52.525,52.525,0,0,1,417.765,501.752Z" transform="translate(-410.111 -501.58)" fill="#fff" opacity="0.524"/>
            <path id="Path_5140" data-name="Path 5140" d="M417.808,501.762c.016.072-3.326.051-5.489.051-1.534,0-1.242.024-1.287-.062-.12-.074-.966-.077,1.2-.077S417.776,501.626,417.808,501.762Z" transform="translate(-410.201 -501.591)" fill="#fff" opacity="0.571"/>
            <path id="Path_5141" data-name="Path 5141" d="M417.85,501.773c.015.066-3.342.05-5.442.05-1.539,0-1.184.014-1.239-.061-.135-.064-.94-.072,1.159-.072S417.823,501.65,417.85,501.773Z" transform="translate(-410.292 -501.603)" fill="#fff" opacity="0.619"/>
            <path id="Path_5142" data-name="Path 5142" d="M417.893,501.783c.013.061-3.358.048-5.394.048-1.545,0-1.127,0-1.191-.059-.15-.053-.913-.067,1.122-.067S417.869,501.673,417.893,501.783Z" transform="translate(-410.382 -501.615)" fill="#fff" opacity="0.667"/>
            <path id="Path_5143" data-name="Path 5143" d="M417.936,501.793c.011.055-3.374.047-5.346.047-1.551,0-1.07,0-1.144-.058-.166-.043-.887-.062,1.083-.062S417.916,501.7,417.936,501.793Z" transform="translate(-410.473 -501.625)" fill="#fff" opacity="0.714"/>
            <path id="Path_5144" data-name="Path 5144" d="M417.984,501.8c.01.05-3.39.046-5.3.046-1.557,0-1.007-.027-1.1-.057-.174-.058-.86-.057,1.046-.057S417.967,501.718,417.984,501.8Z" transform="translate(-410.568 -501.637)" fill="#fff" opacity="0.762"/>
            <path id="Path_5145" data-name="Path 5145" d="M418.024,501.812c.008.044-3.406.045-5.251.045-1.562,0-.952-.034-1.048-.056-.192-.043-.834-.052,1.008-.052S418.011,501.739,418.024,501.812Z" transform="translate(-410.656 -501.646)" fill="#fff" opacity="0.81"/>
            <path id="Path_5146" data-name="Path 5146" d="M418.065,501.82c.006.038-3.422.044-5.2.044-1.568,0-.9-.041-1-.055-.209-.027-.808-.047.97-.047S418.055,501.76,418.065,501.82Z" transform="translate(-410.745 -501.655)" fill="#fff" opacity="0.857"/>
            <path id="Path_5147" data-name="Path 5147" d="M418.107,501.827c0,.033-3.439.043-5.155.043-1.574,0-.84-.048-.953-.053-.226-.011-.781-.042.933-.042S418.1,501.779,418.107,501.827Z" transform="translate(-410.834 -501.663)" fill="#fff" opacity="0.905"/>
            <path id="Path_5148" data-name="Path 5148" d="M418.149,501.834c0,.027-3.455.042-5.107.042-1.579,0-.783-.055-.9-.052-.241.006-.755-.036.895-.036S418.146,501.8,418.149,501.834Z" transform="translate(-410.924 -501.672)" fill="#fff" opacity="0.952"/>
            <path id="Path_5149" data-name="Path 5149" d="M418.192,501.841c0,.022-3.471.041-5.059.041s-.726-.063-.857-.051c-.257.019-.728-.032.857-.032S418.192,501.819,418.192,501.841Z" transform="translate(-411.015 -501.68)" fill="#fff"/>
          </g>
          <g id="Group_5541" data-name="Group 5541" transform="translate(21.73 15.3)" opacity="0.31" style="mix-blend-mode: color-dodge;isolation: isolate">
            <path id="Path_5150" data-name="Path 5150" d="M383.356,513.224c-.1-.1,3.437-4.5,6.269-8.082,1.414-1.789,2.8-3.868,3.031-3.723.14.089.092.016-2.735,3.593S383.528,513.391,383.356,513.224Z" transform="translate(-383.354 -501.412)" fill="#fff" opacity="0"/>
            <path id="Path_5151" data-name="Path 5151" d="M383.849,513.052c-.1-.1,3.332-4.364,6.1-7.865,1.419-1.8,2.783-3.829,3.015-3.707.143.075.034.086-2.732,3.585S384.011,513.213,383.849,513.052Z" transform="translate(-383.678 -501.453)" fill="#fff" opacity="0.048"/>
            <path id="Path_5152" data-name="Path 5152" d="M384.342,512.879c-.094-.094,3.227-4.225,5.935-7.647,1.425-1.8,2.768-3.79,3-3.692.146.062-.025.155-2.728,3.576S384.5,513.033,384.342,512.879Z" transform="translate(-384.002 -501.494)" fill="#fff" opacity="0.095"/>
            <path id="Path_5153" data-name="Path 5153" d="M384.835,512.705c-.089-.089,3.121-4.086,5.767-7.43,1.43-1.81,2.755-3.751,2.982-3.676.15.049-.083.225-2.725,3.568S384.982,512.851,384.835,512.705Z" transform="translate(-384.326 -501.534)" fill="#fff" opacity="0.143"/>
            <path id="Path_5154" data-name="Path 5154" d="M385.329,512.531c-.085-.085,3.016-3.947,5.6-7.212,1.436-1.817,2.744-3.712,2.967-3.66.156.036-.142.3-2.721,3.56S385.468,512.669,385.329,512.531Z" transform="translate(-384.651 -501.574)" fill="#fff" opacity="0.19"/>
            <path id="Path_5155" data-name="Path 5155" d="M385.822,512.353c-.081-.08,2.91-3.807,5.433-6.995,1.441-1.823,2.744-3.717,2.951-3.644.165-.009-.2.365-2.718,3.551S385.954,512.484,385.822,512.353Z" transform="translate(-384.975 -501.609)" fill="#fff" opacity="0.238"/>
            <path id="Path_5156" data-name="Path 5156" d="M386.315,512.178c-.076-.075,2.805-3.668,5.265-6.777,1.447-1.831,2.733-3.687,2.934-3.629.17-.028-.259.435-2.714,3.543S386.44,512.3,386.315,512.178Z" transform="translate(-385.299 -501.648)" fill="#fff" opacity="0.286"/>
            <path id="Path_5157" data-name="Path 5157" d="M386.808,512c-.072-.071,2.7-3.529,5.1-6.56,1.452-1.838,2.723-3.656,2.919-3.613.175-.048-.317.5-2.711,3.535S386.925,512.114,386.808,512Z" transform="translate(-385.623 -501.683)" fill="#fff" opacity="0.333"/>
            <path id="Path_5158" data-name="Path 5158" d="M387.3,511.82c-.067-.066,2.594-3.39,4.93-6.342a32.49,32.49,0,0,1,2.9-3.6c.18-.067-.376.574-2.708,3.526S387.411,511.927,387.3,511.82Z" transform="translate(-385.948 -501.717)" fill="#fff" opacity="0.381"/>
            <path id="Path_5159" data-name="Path 5159" d="M387.795,511.639c-.063-.061,2.489-3.251,4.763-6.125a34.723,34.723,0,0,1,2.886-3.582c.185-.087-.434.644-2.7,3.518S387.9,511.738,387.795,511.639Z" transform="translate(-386.272 -501.75)" fill="#fff" opacity="0.429"/>
            <path id="Path_5160" data-name="Path 5160" d="M388.288,511.459c-.058-.057,2.384-3.112,4.6-5.907a37.411,37.411,0,0,1,2.87-3.566c.19-.107-.493.714-2.7,3.51S388.382,511.551,388.288,511.459Z" transform="translate(-386.596 -501.783)" fill="#fff" opacity="0.476"/>
            <path id="Path_5161" data-name="Path 5161" d="M388.781,511.278c-.054-.052,2.278-2.972,4.428-5.69a40.671,40.671,0,0,1,2.855-3.55,33.345,33.345,0,0,1-2.7,3.5C391.218,508.257,388.868,511.362,388.781,511.278Z" transform="translate(-386.92 -501.816)" fill="#fff" opacity="0.524"/>
            <path id="Path_5162" data-name="Path 5162" d="M389.274,511.1c-.049-.048,2.173-2.833,4.261-5.472a44.628,44.628,0,0,1,2.838-3.535,37.643,37.643,0,0,1-2.694,3.493C391.593,508.222,389.353,511.174,389.274,511.1Z" transform="translate(-387.244 -501.849)" fill="#fff" opacity="0.571"/>
            <path id="Path_5163" data-name="Path 5163" d="M389.768,510.916c-.045-.043,2.068-2.694,4.094-5.255,1.486-1.879,2.657-3.474,2.822-3.519a42.644,42.644,0,0,1-2.69,3.485C391.968,508.187,389.839,510.984,389.768,510.916Z" transform="translate(-387.569 -501.881)" fill="#fff" opacity="0.619"/>
            <path id="Path_5164" data-name="Path 5164" d="M390.261,510.735c-.04-.039,1.962-2.555,3.926-5.037,1.491-1.887,2.646-3.444,2.806-3.5.21-.185-.726.994-2.687,3.476S390.325,510.8,390.261,510.735Z" transform="translate(-387.893 -501.914)" fill="#fff" opacity="0.667"/>
            <path id="Path_5165" data-name="Path 5165" d="M390.754,510.565c-.036-.034,1.857-2.416,3.759-4.819,1.5-1.893,2.649-3.39,2.79-3.488a35.8,35.8,0,0,1-2.683,3.468C392.717,508.13,390.81,510.618,390.754,510.565Z" transform="translate(-388.217 -501.958)" fill="#fff" opacity="0.714"/>
            <path id="Path_5166" data-name="Path 5166" d="M391.247,510.382c-.032-.029,1.752-2.276,3.592-4.6,1.5-1.9,2.637-3.365,2.774-3.472a42.211,42.211,0,0,1-2.68,3.46C393.092,508.094,391.3,510.428,391.247,510.382Z" transform="translate(-388.541 -501.989)" fill="#fff" opacity="0.762"/>
            <path id="Path_5167" data-name="Path 5167" d="M391.74,510.2c-.027-.025,1.646-2.138,3.424-4.385,1.507-1.907,2.625-3.339,2.758-3.456.248-.219-.9,1.2-2.676,3.451S391.781,510.237,391.74,510.2Z" transform="translate(-388.865 -502.019)" fill="#fff" opacity="0.81"/>
            <path id="Path_5168" data-name="Path 5168" d="M392.234,510.016c-.023-.021,1.541-2,3.257-4.167,1.513-1.914,2.612-3.312,2.742-3.441.249-.245-.96,1.273-2.673,3.443S392.267,510.046,392.234,510.016Z" transform="translate(-389.19 -502.05)" fill="#fff" opacity="0.857"/>
            <path id="Path_5169" data-name="Path 5169" d="M392.727,509.833c-.018-.016,1.436-1.859,3.089-3.949,1.519-1.922,2.6-3.286,2.726-3.425.248-.271-1.018,1.343-2.669,3.435S392.752,509.855,392.727,509.833Z" transform="translate(-389.514 -502.08)" fill="#fff" opacity="0.905"/>
            <path id="Path_5170" data-name="Path 5170" d="M393.22,509.649c-.014-.011,1.33-1.72,2.922-3.732,1.524-1.928,2.585-3.259,2.71-3.409.246-.3-1.077,1.413-2.666,3.426S393.238,509.663,393.22,509.649Z" transform="translate(-389.838 -502.11)" fill="#fff" opacity="0.952"/>
            <path id="Path_5171" data-name="Path 5171" d="M393.713,509.466c-.01-.006,1.225-1.581,2.754-3.515s2.571-3.231,2.694-3.394c.244-.322-1.135,1.483-2.663,3.418S393.723,509.473,393.713,509.466Z" transform="translate(-390.162 -502.14)" fill="#fff"/>
          </g>
        </g>
        <g id="Group_5543" data-name="Group 5543" transform="translate(0 4.087)">
          <path id="Path_5172" data-name="Path 5172" d="M301.855,463.954c.918-.191,20.442,1.815,28.882-14.607a25.18,25.18,0,0,1-3.36-2.2l-.063-1.3,10.578-2.038,2.885,10.534-1.179.8-3.48-2.058s-6.18,7.7-14.739,10.682a41.673,41.673,0,0,1-17.868,1.848C301.473,465.229,301.855,463.954,301.855,463.954Z" transform="translate(-301.787 -442.885)" fill="url(#radial-gradient-3)"/>
          <path id="Path_5173" data-name="Path 5173" d="M301.938,461.833c.954-.191,20.621,1.242,29.405-15.18a39.672,39.672,0,0,1-4.105-2.577l11.553-2.961,1.91,11.458-3.757-2.185s-6.429,7.7-15.339,10.682a48.847,48.847,0,0,1-18.9,2.1C301.076,462.884,301.938,461.833,301.938,461.833Z" transform="translate(-301.71 -441.114)" fill="url(#radial-gradient-4)"/>
        </g>
      </g>
    </g>
  </g>
</svg>
