<svg xmlns="http://www.w3.org/2000/svg" xmlns:xlink="http://www.w3.org/1999/xlink" width="31" height="31.998" viewBox="0 0 31 31.998">
  <defs>
    <linearGradient id="linear-gradient" x1="0.5" x2="0.5" y2="1" gradientUnits="objectBoundingBox">
      <stop offset="0" stop-color="#011d37"/>
      <stop offset="1" stop-color="#556879"/>
    </linearGradient>
  </defs>
  <g id="Group_5548" data-name="Group 5548" transform="translate(-234 -1740)">
    <path id="noun-registration-3264274" d="M76.6-.035a1,1,0,0,0-1,1V4.527h0a1,1,0,0,0,1,1H83.47a1,1,0,0,0,1-1V.969a1,1,0,0,0-1-1ZM70.413,1.744a1,1,0,0,0-1,1V30.965a1,1,0,0,0,1,1H89.654a1,1,0,0,0,1-1V2.748a1,1,0,0,0-1-1H86.473V4.519a3.032,3.032,0,0,1-3.011,3.011H76.605a3.031,3.031,0,0,1-3.011-3.011V1.744Zm4.777,8.282h9.69a1,1,0,1,1,0,2H75.19a1,1,0,1,1,0-2Zm-.106,6.222h.008c.032,0,.065,0,.1,0h9.69a1,1,0,1,1,0,2h-9.69a1,1,0,0,1-.105-2Zm.065,6.214H84.88a1,1,0,0,1,0,2h-9.69a1,1,0,0,1-.041-2Z" transform="translate(164.583 1740.035)" fill="#fed130"/>
    <path id="noun-registration-3264274-2" data-name="noun-registration-3264274" d="M93.115,5.183h0a.835.835,0,0,0-.838.838v3h5.114v-.43h.9v5.361a.835.835,0,0,0,1.67,0v-6.2a.835.835,0,0,0-.838-.833h-1.73v-.9a.835.835,0,0,0-.833-.838Zm-.838,5.5V25.038h0a.835.835,0,0,0,.253.6l1.725,1.67a.835.835,0,0,0,1.164,0l1.72-1.67a.836.836,0,0,0,.253-.6V10.687Z" transform="translate(165.04 1744.456)" fill="url(#linear-gradient)"/>
  </g>
</svg>
