<svg id="Frame_2" data-name="Frame 2" xmlns="http://www.w3.org/2000/svg" xmlns:xlink="http://www.w3.org/1999/xlink" width="32" height="32" viewBox="0 0 32 32">
  <defs>
    <linearGradient id="linear-gradient" x1="0.5" x2="0.5" y2="1" gradientUnits="objectBoundingBox">
      <stop offset="0" stop-color="#0d2740"/>
      <stop offset="1" stop-color="#4d6073"/>
    </linearGradient>
  </defs>
  <path id="Path_5174" data-name="Path 5174" d="M14.476,1.946C14.476.661,15.241,0,16,0s1.523.661,1.523,1.946v.679a2.824,2.824,0,0,1,1.151,1.413h7.691a.977.977,0,0,1,.9.592l0,0,4.268,12.191a.207.207,0,0,1-.015.19.2.2,0,0,1-.169.09H29.671a.186.186,0,0,1-.184-.119l-3.113-9.55-3.083,9.549a.187.187,0,0,1-.185.12H21.431a.2.2,0,0,1-.169-.09.209.209,0,0,1-.016-.19L24.9,5.973H18.675a2.824,2.824,0,0,1-1.151,1.413V27.44a1.7,1.7,0,0,0,.314,1c1.188,1.722,3.081,1.365,5.28,1.683,1.509.217,1.442,1.873.252,1.873H8.632c-1.19,0-1.257-1.655.252-1.873,2.2-.318,4.092.039,5.28-1.683a1.7,1.7,0,0,0,.314-1V7.386a2.824,2.824,0,0,1-1.151-1.413H7.1l3.663,10.853a.208.208,0,0,1-.016.19.2.2,0,0,1-.168.09H8.907a.186.186,0,0,1-.185-.12L5.627,7.436,2.545,16.985a.186.186,0,0,1-.185.12H.685a.2.2,0,0,1-.168-.09.208.208,0,0,1-.017-.19L4.737,4.634l0,0a.976.976,0,0,1,.9-.592h7.691a2.826,2.826,0,0,1,1.151-1.413ZM11.342,19.481a5.8,5.8,0,0,1-11.318,0,.967.967,0,0,1,.2-.838.979.979,0,0,1,.783-.371h9.35a.98.98,0,0,1,.783.371A.966.966,0,0,1,11.342,19.481Zm20.633,0a5.8,5.8,0,0,1-11.318,0,.965.965,0,0,1,.2-.838.979.979,0,0,1,.783-.371h9.35a.98.98,0,0,1,.783.371A.964.964,0,0,1,31.975,19.481ZM16,3.887h-.016a1.119,1.119,0,1,0,0,2.239h.031a1.119,1.119,0,1,0,0-2.239Z" transform="translate(0)" fill="#fed130" fill-rule="evenodd"/>
  <path id="Path_5175" data-name="Path 5175" d="M11.342,22.916a5.788,5.788,0,0,1-11.318,0,.978.978,0,0,1,.2-.844.976.976,0,0,1,.783-.374h9.35a1.006,1.006,0,0,1,.984,1.217Zm20.633,0a5.788,5.788,0,0,1-11.318,0,1.007,1.007,0,0,1,.984-1.217h9.35a1.006,1.006,0,0,1,.983,1.217Z" transform="translate(0 -3.453)" fill-rule="evenodd" fill="url(#linear-gradient)"/>
</svg>
